<svg xmlns="http://www.w3.org/2000/svg" width="50px" viewBox="0 0 843.73 791.86"><defs><style>.cls-1{fill:#634e42;}.cls-2{fill:#faba74;}.cls-3{fill:#d43449;}.cls-4{fill:#f9bb00;}.cls-5{fill:#46524f;}.cls-6{fill:#754629;}.cls-7{fill:#ad4119;}.cls-8{fill:#f0833a;}.cls-9{fill:#ca9e67;}.cls-10{fill:#b17f4a;}.cls-11{fill:#c6c6c6;}.cls-12{fill:#878787;}.cls-13{fill:#dadada;}.cls-14{fill:#00a19a;}.cls-15{fill:#74c6c9;}.cls-16{fill:#fff;}.cls-17{fill:#6c889c;}.cls-18{fill:#936037;}.cls-19{fill:#3b3535;}.cls-20{fill:#7d4e24;}.cls-21{fill:#9d9d9c;}.cls-22{fill:#5a3936;}.cls-23{fill:#524d55;}.cls-24{fill:#dc8c78;}.cls-25{fill:#426588;}.cls-26{fill:#99b5c2;}.cls-27{fill:#175a7e;}.cls-28{fill:#ededed;}.cls-29{fill:#dacab4;}.cls-30{fill:#e29733;}.cls-31{fill:#fdd079;}.cls-32{fill:#683c11;}.cls-33{fill:#ffe03d;}.cls-34{fill:#f6b352;}.cls-35{fill:#f39200;}.cls-36{fill:#b2b3b3;}.cls-37{fill:#f39232;}.cls-38{opacity:0.77;}.cls-39{fill:#f6f6f6;}.cls-40{fill:#8ccdc6;}</style></defs><g id="Layer_2" data-name="Layer 2"><g id="Layer_2-2" data-name="Layer 2"><polygon class="cls-1" points="340.27 743.33 343.77 759.64 372.19 774.94 325.56 774.94 325.56 759.64 325.37 743.12 340.27 743.33"/><polygon class="cls-1" points="195.78 743.33 192.29 759.64 163.87 774.94 210.5 774.94 210.5 759.64 210.69 743.12 195.78 743.33"/><path class="cls-2" d="M492.92,372.1l5.63-3.62v-3.93s6.89-5,9.54-7.23,2.13,3.8-1.53,6.58,11.58,1.44,11.58,1.44,10.22-1.1,10.69-.32.79,6.76,0,9.91-14.58,8.85-17.4,8.53-8.54-.67-10.9-3.19l-6,3.2Z"/><path class="cls-3" d="M388.15,356c-26.56-24.21-45.1-26.55-45.1-26.55l3.36,69.09s40,18.48,87.82,12.42c30.32-3.84,49.17-12.6,58.9-18.49l-6-21.41C456,384.61,412.52,378.19,388.15,356Z"/><path class="cls-4" d="M495.15,366.91a71,71,0,0,1-8.06,4.12l6,21.41a52.32,52.32,0,0,0,8.17-5.82Z"/><path class="cls-2" d="M106.36,376.54l-5.64-3.62V369s-6.88-5-9.54-7.23-2.13,3.79,1.53,6.58-11.57,1.43-11.57,1.43-10.22-1.1-10.7-.31-.78,6.76,0,9.91S85,388.22,87.85,387.9s8.54-.67,10.89-3.19l6,3.2Z"/><path class="cls-3" d="M211.7,360.41c-24.41,22.25-67.94,28.66-99.08,15L106.92,397c9.79,5.89,28.58,14.55,58.7,18.37,47.77,6.05,87.82-12.42,87.82-12.42l3.35-69.09S238.26,336.2,211.7,360.41Z"/><path class="cls-4" d="M104.13,371.35,98,391.06a53.26,53.26,0,0,0,8.38,5.94l5.7-21.59A72,72,0,0,1,104.13,371.35Z"/><path class="cls-5" d="M187.28,757.47c18.12-34.31,47.85-202.64,50.12-235.72s6.79-45.33,6.79-45.33H353.42c2.26,6.13-1,152.74-1.39,282.87l-28.65.81s-28.64-218.6-28.64-213.7S289.5,611.89,213.23,763Z"/><path class="cls-2" d="M280.49,338.06c7.29-16.52,7.63-42.8,7.63-43.93l21.53-.37s2.43,28.91,4.51,46.93S280.49,338.06,280.49,338.06Z"/><path class="cls-2" d="M270.63,285.3c4.74,16,11.87,32.87,28.69,29.31s19.09-22.36,14.35-38.41-14.45-23-26.77-20.36C276.66,258,265.89,269.25,270.63,285.3Z"/><path class="cls-2" d="M268.55,295c1.76,2.74,4,5.52,6.71,4.08s2-5,.26-7.76-3.86-3.56-5.85-2.51C268,289.71,266.79,292.28,268.55,295Z"/><path class="cls-2" d="M319.59,284.24c-.5,3.21-1.42,6.65-4.49,6.44s-3.88-3.77-3.38-7,2.09-4.82,4.34-4.66C317.93,279.16,320.09,281,319.59,284.24Z"/><polygon class="cls-6" points="275.36 295.75 265.19 274.89 274.64 268.7 275.36 295.75"/><polygon class="cls-6" points="315.43 287.28 316.3 264.09 305.15 262.25 315.43 287.28"/><path class="cls-7" d="M287.25,270.09c-.56,1.26.55,2.76.12,4.08s-2.17,1.71-3.56,1.53-2.82-.68-4.16-.25a3.22,3.22,0,0,0-2,3.79c.43,1.57,2.09,2.91,1.62,4.48-.54,1.83-3.13,1.67-4.9,2.38-.65.27-1.23.69-1.88.95a4.42,4.42,0,0,1-5.77-3.45,4.85,4.85,0,0,0-.41-2.23c-.63-.9-2-.84-3.06-.79-2.15.09-4.66-.45-5.63-2.37a4.62,4.62,0,0,1,.91-4.87,13.84,13.84,0,0,1,4.28-3,6,6,0,0,1-.7-6,10.22,10.22,0,0,1,4.22-4.63,4.09,4.09,0,0,0,1.92-1.77,6.5,6.5,0,0,0,.07-2.33c0-2.61,2.32-4.55,4.44-6.07,1.83-1.32,3.87-2.69,6.13-2.56s4.05,1.58,6.19,1.65c2.37.08,4.41-1.49,6.55-2.51s5.18-1.24,6.42.77c.63,1,.62,2.37,1.45,3.23a4.16,4.16,0,0,0,2.46,1,12.3,12.3,0,0,1,5.13,1.4c6.34,4.15-4.91,7.64-7,10.26-1.48,1.85-2.56,3.87-4.52,5.31-1.7,1.25-2.71,1-4.69.9C289.6,268.88,287.88,268.65,287.25,270.09Z"/><path class="cls-7" d="M315.64,261c.95,1.79,2.83,3,3.47,4.94a2.4,2.4,0,0,1,0,1.69c-.6,1.35,0,1.6-.87,2.77-1.37,1.85-.73,4.08-1.87,6.08-.91-.94-3.14-.69-4-1.66a5.62,5.62,0,0,1-.87-1.62c-1-2.32-2.57-4.54-4.89-5.34-3.34-1.14-6.6-1.2-7-5.68a6.42,6.42,0,0,1,2.53-6.12c2-1.35,5-1.53,7.35-1.38C313.84,255,313.87,257.63,315.64,261Z"/><path class="cls-3" d="M356.9,372.69l-5.66-40.84s-12.77-7.3-33.58-9.59c0,.15,0,.31,0,.46.42,8.48-7.43,15.76-17.55,16.26s-18.66-6-19.08-14.43c0-.14,0-.29,0-.43a134.3,134.3,0,0,0-36.29,13.45c-12.46,8.57-7.55,163-7.55,163,82.68,23.68,127.23,6.53,127.23,6.53C361.81,485,356.9,372.69,356.9,372.69Z"/><polygon class="cls-8" points="280.49 324.12 280.49 324.12 280.49 324.11 280.49 324.12"/><polygon class="cls-8" points="312.15 321.83 312.15 321.83 312.15 321.83 312.15 321.83"/><path class="cls-4" d="M299.58,339c10.11-.5,18-7.78,17.55-16.26,0-.15,0-.31,0-.46-1.6-.17-3.25-.32-4.94-.43h0a10.55,10.55,0,0,1,.12,1.13c.32,6.23-5.46,11.59-12.89,12s-13.72-4.38-14-10.61a8.22,8.22,0,0,1,0-1.11c-1.6.27-3.23.57-4.87.91h0c0,.14,0,.29,0,.43C280.92,333,289.46,339.49,299.58,339Z"/><path class="cls-9" d="M211.87,781.18,251.24,539a4.54,4.54,0,0,0-9-1l-39.49,243.2Z"/><path class="cls-9" d="M305.32,781.18,258.09,539a4.53,4.53,0,1,1,9-1l47.36,243.2Z"/><rect class="cls-9" x="230.61" y="545.49" width="44.53" height="13.82"/><rect class="cls-10" x="258.63" y="545.49" width="18.04" height="13.82"/><rect class="cls-9" x="215.78" y="700.89" width="79.47" height="4.29"/><path class="cls-9" d="M509.54,781.18,548.91,539a4.54,4.54,0,0,0-9-1l-39.49,243.2Z"/><path class="cls-9" d="M603,781.18,555.75,539a4.54,4.54,0,1,1,9-1l47.36,243.2Z"/><rect class="cls-9" x="528.28" y="545.49" width="44.53" height="13.82"/><rect class="cls-10" x="556.3" y="545.49" width="18.04" height="13.82"/><rect class="cls-9" x="513.45" y="700.89" width="79.47" height="4.29"/><rect class="cls-11" x="209.65" y="532.84" width="399.06" height="12.65" rx="4.73"/><path class="cls-12" d="M279.05,454.22l-1.39,4.67,20.21,63.76a5.78,5.78,0,0,0,5.52,3.9H407.26L409.1,522Z"/><path class="cls-13" d="M407.79,523.7H302.28a1.39,1.39,0,0,1-1.32-.93l-21.91-68.55a1.34,1.34,0,0,1,1.31-1.73l105.05,1.35a1.37,1.37,0,0,1,1.31.93L409.1,522A1.34,1.34,0,0,1,407.79,523.7Z"/><path class="cls-14" d="M404.65,521.94H304.33a1.29,1.29,0,0,1-1.24-.88l-20.84-65.18a1.28,1.28,0,0,1,1.25-1.64l99.87,1.29a1.31,1.31,0,0,1,1.25.88L405.9,520.3A1.26,1.26,0,0,1,404.65,521.94Z"/><path class="cls-12" d="M307.2,524.83H449.74a7.56,7.56,0,0,1,7.56,7.56v.15a0,0,0,0,1,0,0H299.64a0,0,0,0,1,0,0v-.15A7.56,7.56,0,0,1,307.2,524.83Z" transform="translate(756.94 1057.38) rotate(180)"/><path class="cls-13" d="M356.78,524.83h94.3a6.22,6.22,0,0,1,6.22,6.22v1.49a0,0,0,0,1,0,0H350.56a0,0,0,0,1,0,0v-1.49A6.22,6.22,0,0,1,356.78,524.83Z" transform="translate(807.87 1057.38) rotate(180)"/><rect class="cls-15" y="196.43" width="229.73" height="141.7" rx="56.9" transform="translate(229.73 534.57) rotate(180)"/><polygon class="cls-15" points="164.25 330.62 173.91 362.83 137.41 329.55 164.25 330.62"/><circle class="cls-16" cx="150.44" cy="276.87" r="9.59"/><circle class="cls-16" cx="114.87" cy="276.87" r="9.59"/><circle class="cls-16" cx="79.29" cy="276.87" r="9.59"/><rect class="cls-17" x="629.78" y="227.11" width="213.96" height="116.19" rx="46.28"/><polygon class="cls-17" points="680.33 336.18 669.02 362.58 711.72 335.3 680.33 336.18"/><circle class="cls-16" cx="700.22" cy="291.89" r="9.85"/><circle class="cls-16" cx="736.76" cy="291.89" r="9.85"/><circle class="cls-16" cx="773.29" cy="291.89" r="9.85"/><path class="cls-18" d="M582.45,397.7c-6.67-3.56-16.81-16.51-16.81-16.51l10.29-3.91Z"/><polygon class="cls-1" points="548.68 755.19 551.57 769.61 521.6 791.86 577.46 779.27 572.55 765.42 569.68 749.93 548.68 755.19"/><path class="cls-19" d="M507.19,640.67C506.71,643.77,543.7,773,543.7,773l29.93-8.57L548.56,640l103-29.65-82.62-22.94S513.14,602.34,507.19,640.67Z"/><rect class="cls-11" x="634.47" y="659.62" width="10.16" height="69.72"/><path class="cls-12" d="M698.77,783.36c-39.34-16.84-79-16.84-118.36,0-2.74,1.28-5.11.47-5.35-2h0c-.24-2.42,1.79-5.54,4.56-6.85,39.87-17.06,80.08-17,119.94,0,2.78,1.3,4.8,4.42,4.56,6.84h0C703.89,783.83,701.51,784.64,698.77,783.36Z"/><path class="cls-20" d="M585.38,784.82a7.19,7.19,0,1,1-7.19-7.05A7.12,7.12,0,0,1,585.38,784.82Z"/><path class="cls-21" d="M587.1,785.29c0-.16,0-.31,0-.47a8.93,8.93,0,0,0-17.86,0c0,.16,0,.31,0,.47Z"/><path class="cls-20" d="M708.11,784.82a7.19,7.19,0,1,1-7.19-7.05A7.12,7.12,0,0,1,708.11,784.82Z"/><path class="cls-21" d="M709.83,785.29c0-.16,0-.31,0-.47a8.93,8.93,0,0,0-17.86,0c0,.16,0,.31,0,.47Z"/><rect class="cls-12" x="630.15" y="719.38" width="18.8" height="47.46" rx="9.31"/><path class="cls-11" d="M612.58,644.66h54.81a0,0,0,0,1,0,0v1.45a13.51,13.51,0,0,1-13.51,13.51H626.09a13.51,13.51,0,0,1-13.51-13.51v-1.45A0,0,0,0,1,612.58,644.66Z"/><path class="cls-22" d="M692.91,605s12.81-163.55,73.6-157.17c0,0,34-2.22-13.12,36S729,621.18,715.12,633.53,690.84,624,692.91,605Z"/><polygon class="cls-1" points="468.55 755.76 465.76 770.2 429.41 780.38 485.99 788.78 486.68 774.16 489.89 758.73 468.55 755.76"/><path class="cls-23" d="M587.39,565.28s-101.82.92-107.83,34.35S462.31,768.1,462.31,768.1l26.56,3.81s37.47-142.15,42-143.82,147,13.3,158.1-10,8.06-61,8.06-61Z"/><path class="cls-24" d="M405.6,514.76s-5.7,9.27-3.54,11.89,14.41,3.23,14.41,3.23L425.79,519Z"/><path class="cls-2" d="M465.22,530.57l-27.71-4.82a25.13,25.13,0,0,1-17.24,8.1c-5.62,9.55-8.83,8.68-10.31,6.42s8.88-13.59,4.74-15.65a24.67,24.67,0,0,0-8.72-2.27c-26.05,4.27-23.59-3.3-23.59-3.3l26.51-4.91,22.94.57L464,516.54Z"/><path class="cls-25" d="M582.48,431.08s-22.37,4.16-32.62,51.75-110.78,30.66-110.78,30.66-1.79,18.58-.33,19,85.77,21.65,116.83,2.77,49.31-47.16,49.31-47.16Z"/><path class="cls-2" d="M613.45,374.83c3.14,16.87-1.39,33.94-11.3,36.9-11.38,3.4-19.22-5.49-25-15.48-1.67-2.87-2.46-7.11-4.24-9.67-11.32-16.32,8.25-31.63,18.22-34.4S610.32,358,613.45,374.83Z"/><polygon class="cls-2" points="626.1 431.18 603.85 439.36 598.78 396.11 613.61 390.62 626.1 431.18"/><path class="cls-2" d="M613.31,419c-3.12.77-6.38,1.6-9.8,2.52l-1.68.47,2.95,25.26Z"/><path class="cls-26" d="M620.4,417.35c-2.28.51-4.63,1.06-7.09,1.66l-8.53,28.25L601.83,422q-2.93.84-5.56,1.74l5.89,40.42Z"/><path class="cls-27" d="M689.54,460.64C679.3,418.55,671.38,406,620.4,417.35l-18.24,46.81-5.89-40.42c-47.11,16.08-27.72,49.19-10,80.76,18.52,33.08-6.59,59.52-6.59,59.52l121.29,18.67C714.14,549.21,701.25,508.78,689.54,460.64Z"/><path class="cls-22" d="M706.51,636.68c0,7-28,10.15-72.48,10.15s-65.5-1.74-65.5-8.73,21-16.57,65.5-16.57S706.51,623.41,706.51,636.68Z"/><rect class="cls-28" x="662.53" y="571.56" width="15.83" height="69.98" rx="7.83"/><path class="cls-28" d="M727.2,570.62c.7,5.5-27.61,3.37-64.09,7.81s-58.28,12.69-59,7.2,20-22.66,56.46-27.11S726.5,565.12,727.2,570.62Z"/><path class="cls-29" d="M713.65,562.61c-12.15-3.89-31.36-6.73-53.06-4.09-36.48,4.45-57.16,21.61-56.46,27.11.41,3.18,7.91,1.75,21.23-.88,4-1.65,8-3.45,12-4.69C662.16,571.74,687.89,567.09,713.65,562.61Z"/><path class="cls-2" d="M634.74,552.77l-29,6.84s-14.22,6.32-15.57,11-4.52,18.43-4.52,18.43,4.59,1.22,5.55-2.76,3.53-12.69,3.53-12.69l-2.83,18.25s3.15,1.65,4.81-2.66,5-14.89,5-14.89-2.59,9.55-1.15,10.62,8.42.81,10.35.41,6.27-3.23,7.87-4.93,9.46-10.33,9.46-10.33L639.55,567Z"/><path class="cls-25" d="M633.23,429.26a24.88,24.88,0,0,1,.88-2.51c4.53-11,15.94-15.76,27.89-12,8.35,2.62,16.54,7.93,21.56,14.66C706.79,460.49,739,491.28,736.42,532c-1.52,23.69-110.11,45.86-110.11,45.86L622,555.64s56.17-19.49,56.17-34.08c0-5.14-3.85-10.29-6.74-14.42-13.55-19.37-32.55-36.15-38.11-59.43C631.9,441.65,631.48,435.21,633.23,429.26Z"/><polygon class="cls-30" points="584.53 425.45 583.49 447.26 603.14 433.23 601.01 415.13 584.53 425.45"/><polygon class="cls-31" points="584.53 425.45 603.85 439.36 603.14 433.23 601.01 415.13 584.53 425.45"/><path class="cls-30" d="M620.18,409.1c0-.05-16.87,15.44-16.87,15.44l3.75,15.16,20.23-23.56Z"/><path class="cls-31" d="M603.31,424.54c1.26,1.06,18.85,12.67,18.85,12.67l8.69-21.72-11.79-7.18Z"/><path class="cls-32" d="M619.42,387.49s6.49-20.43,1-29.36-13.76-10.29-13.76-10.29-4.46-6.23-21.29-3.26-8.79,12-21.75,14.28-8.05,26-8.05,26c0-4.68,8.42-11.2,8.42-11.2-7.41,9.07,0,15.78,0,15.78,0-8.61,14.31-10.11,14.31-10.11A22.66,22.66,0,0,0,598,366s1.89,8.37,10.45,8.93c0,0,6.06,18.26,6.22,19C615.3,397.12,619.42,387.49,619.42,387.49Z"/><path class="cls-2" d="M617.16,380.26c.35,4.22-2.22,7.87-4.79,8.07s-4.15-3.11-4.5-7.33,2.35-6.31,4.91-6.52S616.81,376.05,617.16,380.26Z"/><path class="cls-1" d="M608.18,378.08l-4.69-.24a9.77,9.77,0,0,0-6.12-.17c-3.27.86-5.83,2.64-7,4.88a6.33,6.33,0,0,0-.62,4.34,3.45,3.45,0,0,0-1.6,0,3.19,3.19,0,0,0-1.14.85,6.78,6.78,0,0,0-3.36-3,11.27,11.27,0,0,0-8.72.65,9.38,9.38,0,0,0-4.88,4.42l-3.1,2.81,1.06,2.57,1.75-.12a9.46,9.46,0,0,0,5.63,6.22,9.23,9.23,0,0,0,6.66.18,6.52,6.52,0,0,0,.73-.29c4.79-2.16,6.3-7.71,4.88-12a3,3,0,0,1,1.06-.78,3.49,3.49,0,0,1,1.51,0c1.69,4.05,6.35,7.28,11.33,6,.25-.06.5-.14.74-.22a8.92,8.92,0,0,0,4.92-4.24,9.28,9.28,0,0,0,.74-6.92,8.65,8.65,0,0,0-.45-1.21l1.56-1.1Zm-26.13,21.61a7.73,7.73,0,0,1-6.15.09,8,8,0,0,1-4.24-4c-1.66-3.69-.22-6.89,3.94-8.76.37-.17.74-.31,1.1-.44a9.08,9.08,0,0,1,6.37-.19,5,5,0,0,1,2.75,2.68C587.44,392.63,586.31,397.77,582.05,399.69Zm24.64-16.32a7.88,7.88,0,0,1-.65,5.89,7.63,7.63,0,0,1-4.88,3.85c-4.62,1.22-8.93-2.1-10-6a5,5,0,0,1,.38-3.92,9.07,9.07,0,0,1,5.11-3.91c.37-.13.75-.24,1.14-.35C602.2,377.8,605.54,379.44,606.69,383.37Z"/><path class="cls-33" d="M560.12,159.34A103.3,103.3,0,0,0,456.82,56C366.7,52.88,319,172.44,384,232.61L397,248.33c11.05,13.42,17,29.36,17,45.7h0c0,19.27,18.55,34.9,41.44,34.9S496.8,313.3,496.8,294h0C498,233.62,560.35,234.34,560.12,159.34Z"/><path class="cls-34" d="M423.44,284.51c0-16.34-5.92-32.28-17-45.71,0,0-12.94-15.71-12.93-15.71C351,183.68,356.73,118.8,391.1,79.6c-42.53,37.35-53.34,110.2-7.09,153L397,248.33c11.05,13.42,17,29.36,17,45.7,0,19.27,18.55,34.9,41.44,34.9,15.38,0,28.79-7.06,35.94-17.54a46.16,46.16,0,0,1-26.42,8C442,319.41,423.44,303.78,423.44,284.51Z"/><path class="cls-35" d="M469.81,328.23a2,2,0,0,1-2-1.82A347.34,347.34,0,0,1,478,212.33c-2,.45-4,.82-5.9,1.13a130.4,130.4,0,0,1-35.46.89c-1.51-.17-3.08-.38-4.68-.64,4.78,15.44,7.82,31.43,10.79,47,2.25,11.88,4.59,24.15,7.64,36a2,2,0,0,1-3.82,1c-3.09-11.94-5.44-24.28-7.7-36.22-3.08-16.18-6.23-32.77-11.32-48.63-11.35-2.47-23.67-7.7-30.69-18.58-2.78-4.31-4-8.65-3.5-12.57.64-5.19,4.46-9.4,9.09-10,3.8-.5,7.83,1.34,11.62,5.32,5,5.24,8.27,11.85,10.58,17a164,164,0,0,1,5.94,15.39c2.24.42,4.42.73,6.49,1a125.71,125.71,0,0,0,34.38-.86c2.43-.4,5-.91,7.69-1.56q1.77-6.41,3.77-12.72c3-9.39,6.58-19.24,12.57-27.71,3.29-4.63,6.51-7.54,10.16-9.16,5-2.2,10.65-1.52,14.13,1.68,2.87,2.63,4.3,6.87,4,11.91-.33,6.33-3,12.82-7.64,18.78-8.83,11.26-22,17.27-33.82,20.47A343.79,343.79,0,0,0,471.78,326.1a2,2,0,0,1-1.81,2.12ZM403.72,175.59a5.79,5.79,0,0,0-.72,0c-3.1.41-5.32,3.66-5.68,6.57-.47,3.78,1.32,7.5,2.9,10,5.86,9.09,16,13.85,25.91,16.32-1.51-4.33-3.18-8.61-5.05-12.79-2.31-5.19-5.29-11.14-9.83-15.92C409.39,177.81,406.63,175.59,403.72,175.59Zm108-14.5a10.74,10.74,0,0,0-4.39.94c-3,1.31-5.68,3.8-8.53,7.82-5.69,8-9.15,17.55-12,26.63q-1.64,5.13-3.1,10.32c10.57-3.16,21.83-8.71,29.48-18.46,2.9-3.71,6.44-9.59,6.8-16.54.12-2.23-.09-6.34-2.76-8.8A8,8,0,0,0,511.68,161.09Z"/><path class="cls-26" d="M485.06,350.33h-59.4C441.28,363.48,469.44,363.48,485.06,350.33Z"/><path class="cls-13" d="M500.86,320.34c0-5.23.56-23.15,1.65-31.61a2.77,2.77,0,0,0-2.75-3.11H411a2.77,2.77,0,0,0-2.75,3.11c3.15,23.63-3.57,46.48,17.45,61.6h59.4C494.73,342.84,500.86,331.94,500.86,320.34Z"/><path class="cls-36" d="M494.67,302.17H415.08A3.19,3.19,0,0,1,411.9,299h0a3.19,3.19,0,0,1,3.18-3.18h79.59a3.19,3.19,0,0,1,3.18,3.18h0A3.19,3.19,0,0,1,494.67,302.17Z"/><path class="cls-36" d="M494.67,318H415.08a3.19,3.19,0,0,1-3.18-3.17h0a3.19,3.19,0,0,1,3.18-3.18h79.59a3.19,3.19,0,0,1,3.18,3.18h0A3.19,3.19,0,0,1,494.67,318Z"/><rect class="cls-36" x="415.08" y="326.25" width="79.65" height="6.35" rx="3.06"/><path class="cls-37" d="M457.56,42.88a3.68,3.68,0,0,1-3.71-3.64V3.64a3.72,3.72,0,0,1,7.43,0v35.6A3.68,3.68,0,0,1,457.56,42.88Z"/><path class="cls-37" d="M579,171.28a3.68,3.68,0,0,1,3.72-3.64h36.35a3.64,3.64,0,1,1,0,7.28H582.76A3.68,3.68,0,0,1,579,171.28Z"/><path class="cls-37" d="M545.46,82.45a3.59,3.59,0,0,1,0-5.15l25.71-25.17a3.75,3.75,0,0,1,5.25,0,3.58,3.58,0,0,1,0,5.15l-25.7,25.17A3.78,3.78,0,0,1,545.46,82.45Z"/><path class="cls-37" d="M571.15,123.28a3.61,3.61,0,0,1,2-4.76l33.55-13.71a3.75,3.75,0,0,1,4.87,2,3.63,3.63,0,0,1-2,4.77L576,125.24A3.75,3.75,0,0,1,571.15,123.28Z"/><path class="cls-37" d="M506.11,54.37a3.61,3.61,0,0,1-2-4.77L518.2,16.78a3.74,3.74,0,0,1,4.87-2,3.62,3.62,0,0,1,2,4.77L511,52.42A3.75,3.75,0,0,1,506.11,54.37Z"/><path class="cls-37" d="M335,171.28a3.68,3.68,0,0,0-3.72-3.64H294.94a3.64,3.64,0,1,0,0,7.28h36.35A3.68,3.68,0,0,0,335,171.28Z"/><path class="cls-37" d="M368.59,82.45a3.59,3.59,0,0,0,0-5.15L342.88,52.13a3.76,3.76,0,0,0-5.26,0,3.59,3.59,0,0,0,0,5.15l25.71,25.17A3.78,3.78,0,0,0,368.59,82.45Z"/><path class="cls-37" d="M342.89,123.28a3.6,3.6,0,0,0-2-4.76l-33.55-13.71a3.75,3.75,0,0,0-4.87,2,3.62,3.62,0,0,0,2,4.77L338,125.24A3.74,3.74,0,0,0,342.89,123.28Z"/><path class="cls-37" d="M407.94,54.37a3.63,3.63,0,0,0,2-4.77L395.85,16.78a3.75,3.75,0,0,0-4.87-2,3.61,3.61,0,0,0-2,4.77l14.08,32.82A3.76,3.76,0,0,0,407.94,54.37Z"/><g class="cls-38"><path class="cls-39" d="M511.11,221.12c-.75,2.69-18.11,36.21-63,33.52,0,0,22,9.27,43.19-2.1S511.11,221.12,511.11,221.12Z"/></g><path class="cls-40" d="M690.37,126.89a34.2,34.2,0,1,0,34.2,34.2A34.2,34.2,0,0,0,690.37,126.89Zm0,50.4a16.2,16.2,0,1,1,16.2-16.2A16.21,16.21,0,0,1,690.37,177.29Z"/><path class="cls-39" d="M549.88,265.56a22.63,22.63,0,1,0,22.63,22.63A22.63,22.63,0,0,0,549.88,265.56Zm0,33.35a10.72,10.72,0,1,1,10.72-10.72A10.72,10.72,0,0,1,549.88,298.91Z"/><path class="cls-40" d="M251.27,166.84a17.1,17.1,0,1,0,17.1,17.1A17.11,17.11,0,0,0,251.27,166.84Zm0,25.2a8.1,8.1,0,1,1,8.1-8.1A8.1,8.1,0,0,1,251.27,192Z"/></g></g></svg>