<svg xmlns="http://www.w3.org/2000/svg" viewBox="0 0 412.32 413.66"><defs><style>.cls-1{fill:#dd2120;}.cls-2{fill:#270504;}.cls-3{fill:#fff;}.cls-4{fill:#fe857a;}.cls-5{fill:#324498;}.cls-10,.cls-12,.cls-13,.cls-6{fill:none;stroke-linecap:round;stroke-linejoin:round;}.cls-12,.cls-13,.cls-6{stroke:#270504;}.cls-7{fill:#f2aa31;}.cls-8{fill:#ff9a7d;}.cls-9{fill:#3c5bbf;}.cls-10{stroke:#fff;}.cls-11{fill:#fdb913;}.cls-12{stroke-width:1.6px;}.cls-13{stroke-width:2px;}</style></defs><g id="Layer_2" data-name="Layer 2"><g id="OBJECTS"><polygon class="cls-1" points="35.91 305.38 42.13 298.96 33.45 296.79 35.91 305.38"/><polygon class="cls-2" points="371.55 306.27 365.33 312.7 374 314.87 371.55 306.27"/><polygon class="cls-3" points="300.2 234.61 307.04 240.36 308.61 231.56 300.2 234.61"/><polygon class="cls-3" points="100.54 21.31 91.77 23.03 97.65 29.77 100.54 21.31"/><path class="cls-4" d="M48.15,67.53a2.59,2.59,0,1,0-2.58,2.59A2.58,2.58,0,0,0,48.15,67.53Z"/><path class="cls-4" d="M406.9,199.56a2.59,2.59,0,1,0-2.58,2.58A2.59,2.59,0,0,0,406.9,199.56Z"/><path class="cls-3" d="M373.77,51.58a2.59,2.59,0,1,0-2.59,2.59A2.59,2.59,0,0,0,373.77,51.58Z"/><path class="cls-3" d="M32.06,181.18a2.59,2.59,0,1,0-2.59,2.59A2.58,2.58,0,0,0,32.06,181.18Z"/><path class="cls-1" d="M381.28,109.1a1.55,1.55,0,1,0-1.55,1.55A1.55,1.55,0,0,0,381.28,109.1Z"/><path class="cls-3" d="M364.21,190.25a1.56,1.56,0,1,0-1.56,1.55A1.55,1.55,0,0,0,364.21,190.25Z"/><path class="cls-2" d="M233,27.54a1.55,1.55,0,1,0-1.55,1.55A1.55,1.55,0,0,0,233,27.54Z"/><path class="cls-5" d="M209.93,152.33a1.56,1.56,0,1,0-1.55,1.55A1.56,1.56,0,0,0,209.93,152.33Z"/><path class="cls-5" d="M3.1,170.33a1.55,1.55,0,1,0-1.55,1.55A1.54,1.54,0,0,0,3.1,170.33Z"/><path class="cls-4" d="M399.68,96.35a1.55,1.55,0,1,0-1.55,1.55A1.55,1.55,0,0,0,399.68,96.35Z"/><path class="cls-2" d="M9.13,135.15a1.55,1.55,0,1,0-1.55,1.55A1.54,1.54,0,0,0,9.13,135.15Z"/><path class="cls-2" d="M197.85,131.49A1.55,1.55,0,1,0,196.3,133,1.54,1.54,0,0,0,197.85,131.49Z"/><path class="cls-3" d="M345.13,63.93a9.76,9.76,0,1,0-17.95,5.31,22.08,22.08,0,0,1,3,6.75l.27,1.11h9.86l.24-1a22.86,22.86,0,0,1,3.06-7A9.73,9.73,0,0,0,345.13,63.93Z"/><path class="cls-2" d="M340.55,79.59h-.25v-.77h.25a1.1,1.1,0,0,0,0-2.2H330.2a1.1,1.1,0,1,0,0,2.2h.24v.77h-.24a1.1,1.1,0,0,0,0,2.2h10.35a1.1,1.1,0,0,0,0-2.2Z"/><path class="cls-6" d="M334.57,75.57Q334,70.28,333.41,65a6,6,0,0,0,3.93,0c-.3,3.56-.54,7-.84,10.59"/><path class="cls-4" d="M246.76,100.56a9.76,9.76,0,1,0-18,5.31,21.85,21.85,0,0,1,3,6.75l.27,1.11h9.87l.23-1a22.86,22.86,0,0,1,3.06-7A9.74,9.74,0,0,0,246.76,100.56Z"/><path class="cls-5" d="M242.17,116.22h-.24v-.77h.24a1.1,1.1,0,1,0,0-2.2H231.82a1.1,1.1,0,1,0,0,2.2h.24v.77h-.24a1.1,1.1,0,1,0,0,2.2h10.35a1.1,1.1,0,1,0,0-2.2Z"/><path class="cls-6" d="M236.19,112.2c-.39-3.53-.77-7.06-1.16-10.58a6,6,0,0,0,3.93,0c-.3,3.56-.54,7-.83,10.59"/><path class="cls-7" d="M267,148.76a9.76,9.76,0,1,0-18,5.31,21.87,21.87,0,0,1,3,6.75l.27,1.11h9.86l.24-1a23.08,23.08,0,0,1,3.05-6.95A9.66,9.66,0,0,0,267,148.76Z"/><path class="cls-2" d="M262.43,164.42h-.24v-.77h.24a1.1,1.1,0,1,0,0-2.2H252.09a1.1,1.1,0,0,0,0,2.2h.24v.77h-.24a1.1,1.1,0,0,0,0,2.2h10.34a1.1,1.1,0,1,0,0-2.2Z"/><path class="cls-6" d="M256.46,160.4l-1.16-10.58a6,6,0,0,0,3.93,0c-.3,3.56-.54,7-.84,10.59"/><path class="cls-4" d="M401.37,163.55a9.76,9.76,0,1,0-17.95,5.31,22.08,22.08,0,0,1,3,6.75l.27,1.11h9.86l.24-1a22.86,22.86,0,0,1,3.06-6.95A9.73,9.73,0,0,0,401.37,163.55Z"/><path class="cls-2" d="M396.78,179.21h-.24v-.77h.24a1.1,1.1,0,1,0,0-2.2H386.44a1.1,1.1,0,0,0,0,2.2h.24v.77h-.24a1.1,1.1,0,0,0,0,2.2h10.34a1.1,1.1,0,1,0,0-2.2Z"/><path class="cls-6" d="M390.81,175.19q-.58-5.3-1.16-10.58a6,6,0,0,0,3.93,0c-.3,3.56-.54,7-.84,10.59"/><path class="cls-3" d="M175.68,146.5a9.76,9.76,0,1,0-18,5.3,21.8,21.8,0,0,1,3,6.76l.27,1.11h9.87l.23-1a22.91,22.91,0,0,1,3.06-7A9.71,9.71,0,0,0,175.68,146.5Z"/><path class="cls-5" d="M171.09,162.15h-.24v-.77h.24a1.1,1.1,0,1,0,0-2.19H160.74a1.1,1.1,0,1,0,0,2.19H161v.77h-.24a1.1,1.1,0,0,0,0,2.2h10.35a1.1,1.1,0,0,0,0-2.2Z"/><path class="cls-6" d="M165.11,158.13q-.57-5.28-1.16-10.58a6,6,0,0,0,3.93,0c-.3,3.56-.54,7-.83,10.59"/><path class="cls-4" d="M103.31,75.94a9.76,9.76,0,1,0-18,5.31,22.11,22.11,0,0,1,3,6.75l.27,1.12h9.86l.23-1a23.1,23.1,0,0,1,3.06-7A9.66,9.66,0,0,0,103.31,75.94Z"/><path class="cls-2" d="M98.72,91.6h-.24v-.77h.24a1.1,1.1,0,1,0,0-2.19H88.37a1.1,1.1,0,0,0,0,2.19h.25v.77h-.25a1.1,1.1,0,0,0,0,2.2H98.72a1.1,1.1,0,0,0,0-2.2Z"/><path class="cls-6" d="M92.74,87.58c-.38-3.53-.77-7-1.16-10.58a6.08,6.08,0,0,0,3.93,0c-.29,3.55-.53,7-.83,10.58"/><path class="cls-7" d="M52.74,133.66a9.76,9.76,0,1,0-18,5.3,22.08,22.08,0,0,1,3,6.75l.27,1.12h9.86l.24-1a22.91,22.91,0,0,1,3.06-7A9.7,9.7,0,0,0,52.74,133.66Z"/><path class="cls-2" d="M48.16,149.31h-.25v-.77h.25a1.1,1.1,0,0,0,0-2.19H37.81a1.1,1.1,0,1,0,0,2.19h.24v.77h-.24a1.1,1.1,0,0,0,0,2.2H48.16a1.1,1.1,0,0,0,0-2.2Z"/><path class="cls-6" d="M42.18,145.29Q41.6,140,41,134.71a6,6,0,0,0,3.93,0c-.3,3.56-.54,7-.84,10.59"/><path class="cls-4" d="M73.82,174.55a9.76,9.76,0,1,0-18,5.3,22,22,0,0,1,3,6.76l.27,1.11H69l.23-1a22.86,22.86,0,0,1,3.06-6.95A9.74,9.74,0,0,0,73.82,174.55Z"/><path class="cls-5" d="M69.23,190.21H69v-.77h.24a1.1,1.1,0,1,0,0-2.2H58.88a1.1,1.1,0,0,0,0,2.2h.24v.77h-.24a1.1,1.1,0,0,0,0,2.2H69.23a1.1,1.1,0,0,0,0-2.2Z"/><path class="cls-6" d="M63.25,186.19c-.39-3.53-.77-7.06-1.16-10.58a6,6,0,0,0,3.93,0c-.3,3.56-.54,7-.83,10.59"/><path class="cls-8" d="M55.67,226.4,43.36,215.73a2.32,2.32,0,0,0-1.79,2.13,6.91,6.91,0,0,0,.54,2.92q3,8.67,5.92,17.33c-3.81.41-7.69.58-11.5,1-2-3.95-4.12-8.28-6.06-12.24A3.86,3.86,0,0,0,29.1,225a2.54,2.54,0,0,0-2.35-.08c1.14,5.19,2.27,10.23,3.42,15.42L19.63,226.2a5.25,5.25,0,0,0-2.05-1.9,2.38,2.38,0,0,0-2.27.51c2,4.9,3.84,9.68,5.81,14.59-.89-.32-2.09-.45-3-.77-2.19-2.83-4.58-5.6-6.78-8.43a3.51,3.51,0,0,0-2.22-1.27,2.46,2.46,0,0,0-2.06.93c1.56,3.65,2.94,7,4.5,10.7a13.06,13.06,0,0,0-4.78-.88A3.79,3.79,0,0,0,3.28,242q9.89,5.44,19.79,10.89C36,260,50.89,260.39,65.37,272L84,246.12l-5.92-3.77C71.85,235.43,62.7,232.51,55.67,226.4Z"/><path class="cls-6" d="M48.23,237.54a11.91,11.91,0,0,0,9.83,6.52"/><path class="cls-6" d="M36.73,239.1c.48,1.39,1,2.79,1.46,4.19a34,34,0,0,1,22.53,6.77"/><path class="cls-6" d="M29.48,238.78q1.44,3.9,2.87,7.8"/><path class="cls-6" d="M20.78,239.49l4.77,10"/><path class="cls-6" d="M11.37,240.36a44.74,44.74,0,0,0,8.16,9.72"/><path class="cls-8" d="M359.92,226.4l12.31-10.67a2.32,2.32,0,0,1,1.79,2.13,6.75,6.75,0,0,1-.53,2.92q-3,8.67-5.92,17.33c3.81.41,7.68.58,11.49,1,1.95-3.95,4.12-8.28,6.07-12.24a3.91,3.91,0,0,1,1.36-1.9,2.56,2.56,0,0,1,2.36-.08c-1.15,5.19-2.28,10.23-3.43,15.42,3.49-4.66,7.06-9.45,10.55-14.1.49-.65,1.27-1.67,2-1.9a2.4,2.4,0,0,1,2.28.51c-2,4.9-3.84,9.68-5.81,14.59.88-.32,2.08-.45,3-.77,2.2-2.83,4.59-5.6,6.78-8.43a3.51,3.51,0,0,1,2.22-1.27,2.45,2.45,0,0,1,2.06.93c-1.56,3.65-2.93,7-4.5,10.7a13.1,13.1,0,0,1,4.78-.88,3.81,3.81,0,0,1,3.54,2.32q-9.9,5.44-19.79,10.89c-12.93,7.13-27.82,7.5-42.3,19.06l-18.62-25.83,5.91-3.77C343.75,235.43,352.9,232.51,359.92,226.4Z"/><path class="cls-6" d="M367.46,238.2a13.59,13.59,0,0,1-9,7.62"/><path class="cls-6" d="M379,238.78,377,244.24c-6.45.64-12.6,1.14-19.05,1.78"/><path class="cls-6" d="M385.27,239.32l-3.09,11.32"/><path class="cls-6" d="M395,238.27,389.78,251"/><path class="cls-6" d="M403.88,240.88l-9.07,8.27"/><path class="cls-2" d="M167.48,321.11c9.86,12.76,25.17,21.56,41.29,22.09s32.58-7.82,40.42-21.91Z"/><path class="cls-9" d="M335.84,240.91c-14.31,6.85-28.61,14-42.92,20.8-8.52-9-17.07-18-26.68-25.82s-20-13.87-31.87-17.4c3.46-2.65,4.39-7.79,2.8-11.84s-5.3-7-9.38-8.55a34.32,34.32,0,0,0-12.87-1.68c-4.36.11-8.89.33-13.21.86a46.15,46.15,0,0,0-11.26,2.35c-3.58,1.41-6.9,3.86-8.54,7.34a8.69,8.69,0,0,0,2.18,10.09c-13.49,5.4-27.47,10.43-37.81,20.63-8.79,8.67-18.22,17.36-27.68,25.29-12.38-7.22-25.21-13.65-37.6-20.87q-11,14-22,28.07c11.1,10.2,22.43,20,33.53,30.24a34.74,34.74,0,0,0,20.67,8.82c7.65.63,15.35-1,22.54-3.69s13.94-6.41,20.66-10.12c.5,10.28.67,20.27,1.17,30.55l101.28-1.46c.15-9.55,0-18.56.14-28.11,8.18,6,17,11.61,26.94,13.79s20.09-.78,28.29-6.78c13.7-10,27.44-20.19,41.13-30.21C348.83,262.34,342.41,251.79,335.84,240.91Z"/><path class="cls-6" d="M192.85,207.72l5.36,4.94"/><path class="cls-6" d="M219.68,212.47l6.12-5"/><path class="cls-6" d="M183.39,217.36l6.93-2.66c5.71,5.12,11.6,9.81,17.31,14.93,6.15-4.83,12.48-9.32,18.63-14.16,3.13,1.22,6.42,2.3,9.55,3.51"/><path class="cls-6" d="M156.13,296.41q-.75-19-1.51-37.94"/><path class="cls-6" d="M259.16,296.41l1.71-38"/><path class="cls-6" d="M119.85,261.78l-2.61,5.08"/><path class="cls-6" d="M292.78,261.37c.61,1.33,1.21,2.67,1.82,4"/><path class="cls-6" d="M69.78,279.28l23.15-30.83"/><path class="cls-6" d="M62.84,266.92l9.67,8.21"/><path class="cls-6" d="M67.66,261.45l9.51,7.26"/><path class="cls-6" d="M70.35,258.29l8.89,7.64"/><path class="cls-6" d="M75.7,251.84l9.52,6.62"/><path class="cls-6" d="M79.59,245.79l9.81,7.05"/><path class="cls-6" d="M325,245.82l18.84,35.29"/><path class="cls-6" d="M327.18,249l8.42-4.13"/><path class="cls-6" d="M328.75,252.47l8-4.14"/><path class="cls-6" d="M333.86,261.31l8.48-4.2"/><path class="cls-6" d="M335.62,264.92l9.65-5"/><path class="cls-6" d="M338.88,271.62l10.22-5.1"/><path class="cls-6" d="M342.7,278.62l9.71-6.78"/><path class="cls-6" d="M157.85,311.39l101.24-4.49"/><path class="cls-6" d="M162.48,311.24l1.23,12.3"/><path class="cls-6" d="M173.2,311l.69,12.42"/><path class="cls-6" d="M178.19,310.89q.18,6.51.34,13"/><path class="cls-6" d="M191.11,310.15l.78,13.63"/><path class="cls-6" d="M203.85,309.55q.27,7.05.53,14.12"/><path class="cls-6" d="M210.16,309.18q.36,7.43.7,14.85"/><path class="cls-6" d="M220.08,308.94l.37,14.24"/><path class="cls-6" d="M224.87,308.58q.16,7.29.32,14.59"/><path class="cls-6" d="M232.28,308l.15,15.21"/><path class="cls-6" d="M245.71,308l.93,13.74"/><path class="cls-6" d="M252.91,307.11,252.85,321"/><path class="cls-6" d="M205.81,163.82a10.44,10.44,0,0,1,3.45,3.78,4.66,4.66,0,0,1,1.86-3.59"/><path class="cls-2" d="M232.65,181.51c-.44-1.22-1.53-2.41-2.82-2.28a6.13,6.13,0,0,0-1.2-5.41,5.78,5.78,0,0,0-5-1.89,8.46,8.46,0,0,0-5.69-7.09,8.61,8.61,0,0,0-8.82,2.53A13.29,13.29,0,0,0,197.22,166a13.47,13.47,0,0,0-8.1,8.94,4.38,4.38,0,0,0-5,5.68,5.3,5.3,0,0,0,3.68,3,2.39,2.39,0,0,0,.65,2.34,2.07,2.07,0,0,0,2.19.57l1,5.11c.5,2.47,3,4.08,5.32,4.95a9.57,9.57,0,0,0,7.37-.37l21.51-2.39c.73-2.47,1.66-5,2.39-7.49a4.35,4.35,0,0,0,3.55-1.24A3.58,3.58,0,0,0,232.65,181.51Z"/><path class="cls-8" d="M229.14,192.33a6.79,6.79,0,0,0-6.27-3.66c-.6,1.22-1.68,2.19-2.28,3.41-.2-2.6-.48-5.37-.67-8a6.1,6.1,0,0,1-6.88-2.45,5,5,0,0,1-3.93,1.36,4.32,4.32,0,0,1-3.36-1.91,3.48,3.48,0,0,1-3.9.35,3.92,3.92,0,0,1-1.5,2.71,3.85,3.85,0,0,1-2.88,1.07c-.24,2.4-.47,4.8-.71,7.2l-2.06-3.62a6.62,6.62,0,1,0,1.68,12.94,7.58,7.58,0,0,0,1.54,3.67q0,3.57,0,7.14c3.51,2.91,6.89,5.62,10.39,8.52l11.48-8.64c0-2.43.11-4.82.16-7.24a8.91,8.91,0,0,0,1.36-3.58,6.62,6.62,0,0,0,7.81-9.3Z"/><path class="cls-6" d="M200.63,193.14a2.32,2.32,0,0,0,4,.41"/><path class="cls-6" d="M213,193.18a2.44,2.44,0,0,0,4.28-.52"/><path class="cls-6" d="M209.05,192.74l.16,4.26-.84-.06"/><path class="cls-6" d="M205.67,198.85a1.66,1.66,0,0,0,2.66,1.26"/><path class="cls-6" d="M199.92,186.6a4.41,4.41,0,0,1,2.56-1.88,4.49,4.49,0,0,1,3.16.33"/><path class="cls-6" d="M211.77,185.66a3.65,3.65,0,0,1,5.92.73"/><path class="cls-6" d="M206,180.52a4.06,4.06,0,0,0,3.36,4.29"/><path class="cls-6" d="M191.38,192.7l2.83,2"/><path class="cls-6" d="M195.55,198.68c.22,1.19.45,2.37.67,3.55"/><path class="cls-6" d="M222.35,197.76c-.26,1.47-.53,2.93-.79,4.39"/><path class="cls-6" d="M223.61,194.86l3.47-1.55"/><path class="cls-6" d="M197.79,205.88a15.56,15.56,0,0,0,22.2-.7"/><path class="cls-1" d="M150.73,365.44S178,352.32,192,346.23l4.28,44.43-35.88,13a75.23,75.23,0,0,0-12.29,6.19c-3.85,2.42-6.27,4.05-10.81,3.83A93.08,93.08,0,0,1,150.73,365.44Z"/><path class="cls-6" d="M167.79,390.81l2.43,8.38"/><path class="cls-6" d="M173.58,387.67c.85,2.92,1.69,5.84,2.54,8.76"/><path class="cls-6" d="M179.62,387.48l3.1,6.21"/><path class="cls-2" d="M284.28,316.09a28.7,28.7,0,0,1,29.85,38.4c-3.32,9.08-11.8,15.21-21,18.22-20.37,6.68-83.13,20-97.11,23.35l-17.75-45.88C204.9,336.17,247.13,319.85,284.28,316.09Z"/><path class="cls-10" d="M210.21,335.26,242.64,324"/><path class="cls-10" d="M298.24,343.56a9.1,9.1,0,0,0,8.69,13.35"/><path class="cls-1" d="M267.52,365.44s-27.31-13.12-41.29-19.21L222,390.66l35.89,13a76,76,0,0,1,12.29,6.19c3.85,2.42,6.26,4.05,10.8,3.83A92.89,92.89,0,0,0,267.52,365.44Z"/><path class="cls-6" d="M237.76,380.76l-4.23,12.34"/><path class="cls-6" d="M242.87,382q-1.51,6-3,12"/><path class="cls-6" d="M249.61,384q-1.4,6.12-2.8,12.22"/><path class="cls-2" d="M134,316.09a28.7,28.7,0,0,0-29.86,38.4c3.32,9.08,11.8,15.21,21,18.22,20.38,6.68,83.13,20,97.12,23.35L240,350.18C213.35,336.17,171.13,319.85,134,316.09Z"/><path class="cls-10" d="M180.21,325.45a288.53,288.53,0,0,1,60.47,24.8"/><path class="cls-10" d="M193.85,389.71l14.21,3.57,14.55-51.4"/><path class="cls-10" d="M111.59,353.54a7.41,7.41,0,0,0,7.67-10.31"/><path class="cls-11" d="M136.78,144.71a26.59,26.59,0,1,0-48.9,14.45A59.7,59.7,0,0,1,96,177.55l.73,3h26.87l.63-2.62A62.59,62.59,0,0,1,132.59,159,26.42,26.42,0,0,0,136.78,144.71Z"/><path class="cls-12" d="M104.89,137.77a8,8,0,1,1,7.23,12.45c-1.79.11-3.57-.37-5.36-.22a7.53,7.53,0,1,0,4.31,14.08c.2,10,.58,20,.78,30.07"/><path class="cls-12" d="M109.29,132q-.18,11.16-.37,22.33"/><path class="cls-12" d="M112.59,130.58l.45,24.83"/><path class="cls-10" d="M108.31,122.66a21.91,21.91,0,0,0-20.26,20.58"/><path class="cls-9" d="M124.29,193.33a3,3,0,0,0,0-6h-.66v-2.09h.66a3,3,0,0,0,0-6H96.11a3,3,0,0,0,0,6h.65v2.09h-.65a3,3,0,1,0,0,6h.65v2.1h-.65a3,3,0,1,0,0,6h28.18a3,3,0,0,0,0-6h-.66v-2.1Z"/><line class="cls-10" x1="96.11" y1="185.26" x2="123.63" y2="185.26"/><line class="cls-10" x1="96.76" y1="193.33" x2="123.63" y2="193.33"/><path class="cls-11" d="M203.82,37.11a37.11,37.11,0,1,0-68.26,20.16A83.4,83.4,0,0,1,146.94,83l1,4.23h37.51l.88-3.65A86.9,86.9,0,0,1,198,57.1,36.9,36.9,0,0,0,203.82,37.11Z"/><path class="cls-13" d="M171.37,57.44a20,20,0,0,0,9.95-5.75A4.69,4.69,0,0,1,186,43.63a20.33,20.33,0,0,0,0-11.5,4.69,4.69,0,0,1-4.67-8.06,20,20,0,0,0-9.95-5.75,4.69,4.69,0,0,1-9.32,0,20.06,20.06,0,0,0-9.94,5.75,4.69,4.69,0,0,1-4.67,8.06,20.1,20.1,0,0,0,0,11.5,4.69,4.69,0,0,1,4.67,8.06,20.06,20.06,0,0,0,9.94,5.75l3.29,32.43h3.82Zm-4.66-11.6a8,8,0,1,1,8-8A8,8,0,0,1,166.71,45.84Z"/><path class="cls-10" d="M164,6.09A29.7,29.7,0,0,0,136.51,34"/><path class="cls-1" d="M186.38,105a4.18,4.18,0,1,0,0-8.35h-.91V93.71h.91a4.18,4.18,0,1,0,0-8.35H147.05a4.18,4.18,0,1,0,0,8.35H148v2.92h-.91a4.18,4.18,0,1,0,0,8.35H148v2.93h-.91a4.17,4.17,0,1,0,0,8.34h39.33a4.17,4.17,0,1,0,0-8.34h-.91V105Z"/><line class="cls-10" x1="147.96" y1="93.71" x2="185.67" y2="93.71"/><line class="cls-10" x1="147.96" y1="104.98" x2="185.67" y2="104.98"/><path class="cls-11" d="M304.57,47.51a20,20,0,1,0-36.73,10.85A45.07,45.07,0,0,1,274,72.18l.55,2.28h20.18l.48-2a47,47,0,0,1,6.25-14.22A19.9,19.9,0,0,0,304.57,47.51Z"/><path class="cls-12" d="M288.09,55.81a12.5,12.5,0,0,0,5.15-4.25,8.14,8.14,0,0,0,1.25-6.45,6.11,6.11,0,0,0-4.57-4.49c-2.21-.41-5,.75-5.71,2.89a4.9,4.9,0,0,0-6.6-1.24,6.45,6.45,0,0,0-2.54,6.56,9.61,9.61,0,0,0,4.2,5.94,11.91,11.91,0,0,0,5,2c0,7.24.19,14.33.2,21.57"/><path class="cls-10" d="M281.9,32.42a13.7,13.7,0,0,0-12.66,12.87"/><path class="cls-9" d="M295.18,84a2.25,2.25,0,1,0,0-4.49h-.49V78h.49a2.25,2.25,0,0,0,0-4.5H274a2.25,2.25,0,0,0,0,4.5h.49v1.57H274A2.25,2.25,0,1,0,274,84h.49v1.58H274a2.25,2.25,0,1,0,0,4.49h21.16a2.25,2.25,0,1,0,0-4.49h-.49V84Z"/><line class="cls-10" x1="274.51" y1="77.97" x2="294.69" y2="77.97"/><line class="cls-10" x1="294.69" y1="84.03" x2="274.51" y2="84.03"/><path class="cls-11" d="M350.31,146.16a32.62,32.62,0,1,0-60,17.72,73.19,73.19,0,0,1,10,22.57l.91,3.72h33L335,187a76.61,76.61,0,0,1,10.22-23.23A32.45,32.45,0,0,0,350.31,146.16Z"/><path class="cls-13" d="M332.94,144.52a14.45,14.45,0,0,1-15.78,15.78v29.25"/><path class="cls-13" d="M331.71,139.94a14.25,14.25,0,0,0-2.94-4.24,14.46,14.46,0,0,0-18.62-1.54"/><path class="cls-13" d="M306.8,137.52a14.47,14.47,0,0,0,5.77,21.56"/><polyline class="cls-13" points="310.06 151.65 312.57 159.08 304.78 158.51"/><polyline class="cls-13" points="317.63 135.94 310.15 134.16 314.06 127.92"/><polyline class="cls-13" points="328.49 150.64 332.85 144.31 337.26 150.19"/><path class="cls-10" d="M314.93,118.42A27,27,0,0,0,290,143.77"/><path class="cls-2" d="M335,205.82a3.67,3.67,0,0,0,0-7.34h-.81v-2.57H335a3.67,3.67,0,0,0,0-7.34H300.4a3.67,3.67,0,1,0,0,7.34h.81v2.57h-.81a3.67,3.67,0,1,0,0,7.34h.81v2.57h-.81a3.67,3.67,0,1,0,0,7.34H335a3.67,3.67,0,0,0,0-7.34h-.81v-2.57Z"/><line class="cls-10" x1="301.21" y1="195.91" x2="334.17" y2="195.91"/><line class="cls-10" x1="334.17" y1="205.82" x2="301.21" y2="205.82"/></g></g></svg>