<svg xmlns="http://www.w3.org/2000/svg" viewBox="0 0 1961.92 1885.87"><defs><style>.cls-1{fill:#f37a50;}.cls-2{fill:#de623c;}.cls-3{fill:#201d40;}.cls-4{fill:#2c2858;}.cls-5{fill:#e62552;}.cls-6{fill:#c4204a;}.cls-7{fill:#95a6db;}.cls-8{fill:#768fdb;}.cls-9{fill:#8a284c;}.cls-10{fill:#fff;}.cls-11{fill:#494c7f;}.cls-12{fill:#0e6a41;}.cls-13{fill:#ff4f78;}.cls-14{fill:#3f964f;}.cls-15{fill:#ffe91d;}</style></defs><g id="Layer_2" data-name="Layer 2"><g id="Слой_1" data-name="Слой 1"><polygon id="v-2" class="cls-1" points="740.03 911.01 740.07 911.01 769.19 911.12 775.78 979.9 741.79 997.85 705.54 980.11 711.4 911.12 740.03 911.01"/><path class="cls-1" d="M660,880.66c17.92,44.79,61,69.68,96.14,55.6s49.16-61.79,31.24-106.58-61-69.68-96.14-55.61S642.1,835.87,660,880.66Z"/><path d="M772.11,844.38a6.59,6.59,0,1,0,1.65-9.17A6.6,6.6,0,0,0,772.11,844.38Z"/><path d="M722.76,864.52a7.13,7.13,0,1,0,1.78-9.93A7.13,7.13,0,0,0,722.76,864.52Z"/><path class="cls-2" d="M762.11,854.9c8.91,7,20,15.49,20,15.49s.11,10.74-12.44,15.4c4.54-4.12,8.53-9.6,3.8-15.93S762.11,854.9,762.11,854.9Z"/><path class="cls-3" d="M709.78,860.23a3.37,3.37,0,0,1-.77-.09,3.27,3.27,0,0,1-2.43-4c1.15-4.82,6-13.95,16-14a3.29,3.29,0,1,1,0,6.57c-7.42,0-9.62,8.87-9.64,9A3.28,3.28,0,0,1,709.78,860.23Z"/><path class="cls-3" d="M765.21,830.44a2.73,2.73,0,0,1-2.36-4.12c.12-.21,3-5,8.45-6,3.71-.68,7.55.53,11.41,3.62a2.74,2.74,0,0,1-3.42,4.28c-2.56-2-4.92-2.89-7-2.51a8,8,0,0,0-4.71,3.42A2.74,2.74,0,0,1,765.21,830.44Z"/><path class="cls-3" d="M635.55,847.21c-15.16-43.16,21.77-68,21.77-68s-9.91-.88-11.09-14.8a36.58,36.58,0,0,0,23-.49c49.22-17.82,83.11-17.59,83.11,3.48,0,7.49,32.51,2.36,29.79,52.79.19-3.57-11.43-24.3-22.4-26.37s-1.07,12.6-24,15.75c-23.14,3.18-40.16-2.44-54.3,10.62-11.06,11.38-13.81,69.31-12.12,72.79C665.47,885,642.21,866.17,635.55,847.21Z"/><path class="cls-3" d="M794.19,854.9s2.1,26.28-1.7,34.4c-3.94-10.54-12.41.63-20.36,1.68-19.22,2.55-53.89-3.86-57.32,25-23.49,7.44-45.48-42.83-45.48-42.83-1.35,56.16,39.74,88,98.88,78.7C807.18,945.66,810.79,891.4,794.19,854.9Z"/><path class="cls-2" d="M753.68,908.74a49.67,49.67,0,0,1-11.86-4.65,2.19,2.19,0,1,1,2.07-3.86c9.09,4.86,17.25,6.24,24.24,4.11a22.86,22.86,0,0,0,12.62-10,2.19,2.19,0,0,1,3.88,2,27,27,0,0,1-15.14,12.12A29.63,29.63,0,0,1,753.68,908.74Z"/><path class="cls-1" d="M668.77,873.48c9.89,5.55,14.22,16.62,9.68,24.71s-16.25,10.15-26.14,4.6-14.23-16.62-9.68-24.72S658.88,867.92,668.77,873.48Z"/><path class="cls-2" d="M667.27,897.72a2.48,2.48,0,0,0,.75-.85c2.72-5,2.28-10.16-1.19-13.72a11.94,11.94,0,0,0-13.62-2.5,2.48,2.48,0,0,0,2.24,4.43,7.08,7.08,0,0,1,7.83,1.53c1.92,2,2.06,4.79.38,7.9a2.48,2.48,0,0,0,3.61,3.21Z"/><path d="M773.73,1829.59c6.2-16.83,19.45-18.71,19.45-18.71,25.75,35.53,89,13.73,86.89,61.78-96.16-.62-136.13,0-136.13,0,.13-11,2-37.23,4.25-47.48l5,.92Z"/><path d="M629.86,1830.52c6.2-16.83,19.44-18.71,19.44-18.71,25.75,35.53,89,13.73,86.89,61.78-96.16-.61-136.12,0-136.12,0,.12-11,2-37.23,4.24-47.48l5,.92Z"/><path class="cls-3" d="M837.69,1268.49S853.3,1496.2,847,1546.83s-28.8,115.52-26.26,283c-31.34,7.85-76.76,0-76.76,0s-6.73-189.34,26.41-273.91c-13.48-82.14-56.72-270.29-56.72-270.29Z"/><path class="cls-4" d="M778.36,1274.72s-31.53,255.64-47,304.13-45.53,89.48-73.47,254.44c-32.21,1.61-62.21,0-62.21,0s4.35-209.24,54.52-256.83c1.7-83.3-8.11-300.1-8.11-300.1Z"/><g id="v"><path id="h-5" class="cls-5" d="M633,984.59s54.75-19.17,73-10.38c56.73,27.32,69.74,0,69.74,0,18.13,1.57,72.86,10.38,72.86,10.38,0,61.12,4.08,122.44,3,168.69-.79,40.28,6.89,149.88,6.89,149.88S798.13,1319,741,1319.4c-57.11-.37-115.23-15.6-115.23-15.6s3.05-111,5.59-152.27C630.56,1105.28,633,1045.54,633,984.59Z"/></g><g id="c"><path id="c-2" data-name="c" class="cls-6" d="M946,1075.42c-22.6-53.92-89.66-88.22-97.33-90.83l-15.56,69.22a405,405,0,0,1,55.61,39.67c-4,19.27-3.3,38.18-14.46,62.55,0,0,9.69-13.37,21.64-5.46,11.62,7.7,33-8,33-8S963.23,1116.61,946,1075.42Z"/></g><g id="c-3" data-name="c"><g id="c-4" data-name="c"><g id="c-5" data-name="c"><path id="c-6" data-name="c" class="cls-7" d="M933.38,1211.69a6.08,6.08,0,0,0,1.17.24h1.29a6.12,6.12,0,0,0,5.2-4.27l60.25-194.25a7,7,0,0,0,.24-1.17,6.59,6.59,0,0,0,0-.77,3.53,3.53,0,0,0,0-.46c0-.14,0-.27-.07-.4a6.1,6.1,0,0,0-4.19-4.85,6.19,6.19,0,0,0-1.15-.25,6.37,6.37,0,0,0-1.31,0H843.14l-60.78,206.42H933.48Z"/><path id="c-7" data-name="c" class="cls-8" d="M844.52,1005.75a6.13,6.13,0,0,0-7.66,4L777,1203.55l-.14.45a6.12,6.12,0,0,0,4,7.64h0a6.12,6.12,0,0,0,7.66-4l60-194.21A6.13,6.13,0,0,0,844.52,1005.75Z"/></g></g><path id="c-8" data-name="c" class="cls-1" d="M959.11,1129a6.47,6.47,0,0,1,1.81-.79l-.2-.28c-3.77-5.69-3.52-12.5.57-15.2a6.27,6.27,0,0,1,2.17-.91c-1.06-4.22-.11-8.24,2.81-10.17a6.88,6.88,0,0,1,3.92-1.1c-1.34-4.14-.28-8.49,3-10.65,4.08-2.7,10-1,13.22,3.9s2.52,11-1.56,13.7a7.76,7.76,0,0,1-3.38,1.22c2.72,5.29,2.17,11.09-1.53,13.54a6.68,6.68,0,0,1-2.17.91c1.06,4.22.11,8.24-2.81,10.17a6.74,6.74,0,0,1-3.61,1.09c1.35,3.63.49,7.53-2.38,9.43-3.45,2.28-8.45.81-11.17-3.29S955.66,1131.28,959.11,1129Z"/><path class="cls-1" d="M772.64,1116.71l13.83-8s3.83-19.61,26-20.08c-2.54,8.23-6.21,20.08-6.21,20.08s10.93,8.49,36.85-6c25.34-5.7,14.52,12.78,22.91,14.1,12.39,2-9,26.31-34.33,30-32.73,4.83-36.62-1.87-36.62-1.87l-18.52,6.47Z"/><path id="c-9" data-name="c" class="cls-9" d="M644.7,1137.67c46.21-3.23,125-26.06,125-26.06,12.61,19.35,9.12,45.05,9.12,45.05-71.76,62.92-179.77,83.26-212.91,68.12-30.25-13.83-8.9-198,67.07-240.19h0C659.07,1028.65,644.7,1137.67,644.7,1137.67Z"/></g><path d="M1389.49,1812.5c-25.75,34.35-89,13.27-86.89,59.73,96.16-.6,136.13,0,136.13,0-.13-10.67-2-36-4.25-45.91Z"/><path d="M1533.37,1813.4c-25.75,34.35-89,13.27-86.89,59.73,96.16-.6,136.12,0,136.12,0-.12-10.67-2-36-4.24-45.91Z"/><path class="cls-3" d="M1345,1288.15s-15.61,220.13-9.27,269.07,28.8,111.69,26.25,273.57c31.35,7.58,76.77,0,76.77,0s6.73-183-26.41-264.8c13.48-79.42,56.72-261.31,56.72-261.31Z"/><path class="cls-4" d="M1404.31,1294.17s31.53,247.13,47,294,45.53,86.51,73.47,246c32.21,1.56,70.6-6.37,70.6-6.37s-12.74-195.91-62.91-241.91c-1.7-80.54,8.11-290.13,8.11-290.13Z"/><path class="cls-1" d="M1532.71,889.84c-17.09,42.7-58.13,66.44-91.66,53s-46.88-58.92-29.79-101.62,58.13-66.43,91.67-53S1549.8,847.14,1532.71,889.84Z"/><path d="M1425.84,855.26a6.28,6.28,0,1,1-1.56-8.75A6.28,6.28,0,0,1,1425.84,855.26Z"/><path d="M1472.9,874.46a6.8,6.8,0,1,1-1.7-9.47A6.81,6.81,0,0,1,1472.9,874.46Z"/><path class="cls-2" d="M1435.39,865.28c-8.5,6.7-19.12,14.77-19.12,14.77s-.11,10.24,11.86,14.68c-4.33-3.93-8.13-9.15-3.63-15.18S1435.39,865.28,1435.39,865.28Z"/><path d="M1485.28,870.37a3.14,3.14,0,0,1-3-2.41c-.08-.33-2.19-8.5-9.19-8.53a3.14,3.14,0,1,1,0-6.27c9.56,0,14.16,8.75,15.26,13.35a3.15,3.15,0,0,1-3,3.86Z"/><path d="M1432.42,842a2.59,2.59,0,0,1-2.24-1.28,7.62,7.62,0,0,0-4.54-3.28c-2-.35-4.21.46-6.64,2.4a2.61,2.61,0,0,1-3.26-4.08c3.68-2.94,7.34-4.1,10.89-3.45,5.18,1,7.93,5.56,8,5.75a2.61,2.61,0,0,1-2.25,3.94Z"/><path d="M1520.79,894.3c-12.36-39.73,3.27-60.84,3.27-60.84-10.61-2.13-14.73,1.54-14.73,1.54-5.79-11.88-1.31-20.39-1.31-20.39-21.93-8.55-32.85,5.65-52.63,10.43-27.1,6.56-60.56-4.25-63.7-37.33a5.65,5.65,0,0,1,8.81-5.21,24.93,24.93,0,0,0,14.76,4.32,26.61,26.61,0,0,1-6-15.26,5.65,5.65,0,0,1,9.33-4.4c5.63,4.69,16.08,9.12,34.71,5.63,12.4-2.33,40.79-22.19,58.47-18.31,14.46,3.17,25.93,15.48,30.86,33.08,0,0,35.54,3.69,39.1,42.79,3.5,38.42-41,67.9-41,67.9Z"/><path class="cls-1" d="M1515.94,887.67c-9.41,5.33-13.5,15.9-9.13,23.6s15.52,9.62,24.93,4.29,13.5-15.9,9.14-23.6S1525.35,882.34,1515.94,887.67Z"/><path class="cls-2" d="M1517.46,910.78a2.27,2.27,0,0,1-.72-.81c-2.61-4.79-2.2-9.68,1.09-13.08a11.38,11.38,0,0,1,13-2.43,2.37,2.37,0,0,1-2.12,4.23,6.74,6.74,0,0,0-7.45,1.48c-1.84,1.9-2,4.57-.34,7.54a2.36,2.36,0,0,1-3.43,3.07Z"/><path class="cls-10" d="M1418.22,908.38a2,2,0,0,1,2.11-3A170.25,170.25,0,0,0,1439,908.3a167.47,167.47,0,0,0,18.89.42,2,2,0,0,1,1.54,3.34c-3.6,4.06-10.85,10.05-21.58,9.1S1421.05,913,1418.22,908.38Z"/><path class="cls-3" d="M1373.09,964.33s1.6-4.35-136.78-3.23l-37.1,43.85c38.39,30.78,167,36.26,167,36.26Z"/><polygon class="cls-7" points="1423.37 960.76 1467.02 956.69 1509.24 968.46 1461.66 1017.42 1423.37 960.76"/><path class="cls-1" d="M1438.5,983.23c17.79,14.6,21.42,24.7,59.21,5.18l5.67-58.1-61.52-4.85Z"/><path class="cls-7" d="M1520.45,991.85h0l-12.94-5.12,1.73-18.27-35.88,28.82-10.13,1.61-9.68-3.39-30.18-34.74L1421.82,979l-11.41,2.29h0L1369.25,988l-4.9,228.44-16.24,77.73c54.62,18.16,115.69,22.69,175.73,14.42l-2-78,42.64-223.26Z"/><polygon class="cls-4" points="1455.34 1021.97 1429.56 1196.39 1443.84 1216.22 1462.45 1201.92 1468.78 1023.41 1455.34 1021.97"/><polygon class="cls-4" points="1453.81 1001.37 1463.23 998.89 1472.83 1003.08 1468.77 1023.76 1455.26 1022.54 1453.81 1001.37"/><path class="cls-4" d="M1422.77,962.22l-6.47,210.7-27.88,135.67s-44.11-4.45-71.2-30.23l34.72-102.14,11.88-213.44Z"/><polygon class="cls-11" points="1422.77 962.22 1416.34 1170.09 1384.24 1010.79 1422.77 962.22"/><path class="cls-4" d="M1512.54,975.7l-57.27,341.58s76,9.33,107.25-11.22l-17-112.29,20.73-190.63Z"/><polygon class="cls-11" points="1512.54 975.7 1479.07 1175.9 1539.01 1024.85 1512.54 975.7"/><path class="cls-1" d="M1134.11,774.82c3.05,10.66,4,22.15,17.47,27.9,0,0-2,35.36-.5,64.38,0,0,32.71-36.89,32.71-36.92-1.88-11.7-3.39-33.81-1.59-46.36.46-3.26,1.1-6.51,1.61-9.78,1.41-7.93,3.74-16-1.09-25.61-18.67-37-12.38-49.16-15-51-4.17-1.84-14,5.6-8.44,23.77,5.37,17.59,4,26.22,4,26.22s-14.1-2.67-19.11,2.27C1142,752,1130.55,762.36,1134.11,774.82Z"/><path class="cls-3" d="M1141.7,824.67c19.07-6.35,29.1-9.21,43.93-9.21,35,104.45,60,143.8,49.61,173.79-8.68,25-36.17,23-49.61,4.27C1167.9,968.81,1152.2,874.92,1141.7,824.67Z"/><polygon class="cls-3" points="1566.29 1003.14 1676.71 1175.9 1807.87 1249.96 1767.44 1290.2 1635.86 1232.53 1545.56 1105.12 1566.29 1003.14"/><path class="cls-10" d="M1463.23,998.89s-16.24,16.4-31.18,20.6l-17.66-46.71,9-12Z"/><path class="cls-10" d="M1463.23,998.89a78.37,78.37,0,0,0,27,25.82L1516,982l-6.71-13.57Z"/><g id="с"><path id="с-2" data-name="с" class="cls-7" d="M1583.43,1490.71H619.25c-22.66,0-41-12.37-41-27.62h0c0-15.24,18.37-27.61,41-27.61h964.18c22.66,0,41,12.37,41,27.61h0C1624.46,1478.34,1606.09,1490.71,1583.43,1490.71Z"/><path class="cls-7" d="M980.61,1879.77h0a13,13,0,0,1-10.89-20.12l254.57-390.12,21.8,14.22L991.51,1873.87A13,13,0,0,1,980.61,1879.77Z"/><path class="cls-7" d="M1222.06,1879.77h0a13,13,0,0,0,10.9-20.12L978.38,1469.53l-21.79,14.22,254.57,390.12A13,13,0,0,0,1222.06,1879.77Z"/></g><g id="с-3" data-name="с"><path id="с-4" data-name="с" class="cls-8" d="M1621.81,1873.59h0a12.46,12.46,0,0,1-12.47-12.46V1640.3h24.93v220.83A12.46,12.46,0,0,1,1621.81,1873.59Z"/><path id="с-5" data-name="с" class="cls-8" d="M1709.26,1873.59h0a12.46,12.46,0,0,1-12.46-12.46V1640.3h24.93v220.83A12.46,12.46,0,0,1,1709.26,1873.59Z"/><path id="с-6" data-name="с" class="cls-8" d="M1824,1873.59h0a12.46,12.46,0,0,1-12.46-12.46V1640.3h24.92v220.83A12.46,12.46,0,0,1,1824,1873.59Z"/><path id="с-7" data-name="с" class="cls-8" d="M1911.48,1873.59h0a12.46,12.46,0,0,1-12.47-12.46V1640.3h24.93v220.83A12.46,12.46,0,0,1,1911.48,1873.59Z"/><path id="с-8" data-name="с" class="cls-7" d="M1773.58,1312.58v262.78a5.42,5.42,0,0,1-5.42,5.42H1605.23a29.76,29.76,0,0,0-29.77,29.76h0a29.76,29.76,0,0,0,29.77,29.76h198.11a29.75,29.75,0,0,0,29.76-29.76v-298a29.76,29.76,0,0,0-29.76-29.77h0A29.76,29.76,0,0,0,1773.58,1312.58Z"/><rect id="с-9" data-name="с" class="cls-7" x="1803.34" y="1282.81" width="128.82" height="302.79"/><path id="с-10" data-name="с" class="cls-8" d="M1902.39,1312.58v262.78a5.42,5.42,0,0,1-5.41,5.42H1734.05a29.76,29.76,0,0,0-29.77,29.76h0a29.76,29.76,0,0,0,29.77,29.76h198.11a29.75,29.75,0,0,0,29.76-29.76v-298a29.76,29.76,0,0,0-29.76-29.77h0A29.77,29.77,0,0,0,1902.39,1312.58Z"/></g><g id="с-11" data-name="с"><path id="с-12" data-name="с" class="cls-8" d="M568.66,1873.59h0a12.46,12.46,0,0,0,12.47-12.46V1640.3H556.2v220.83A12.46,12.46,0,0,0,568.66,1873.59Z"/><path id="с-13" data-name="с" class="cls-8" d="M481.21,1873.59h0a12.46,12.46,0,0,0,12.46-12.46V1640.3H468.74v220.83A12.46,12.46,0,0,0,481.21,1873.59Z"/><path id="с-14" data-name="с" class="cls-8" d="M366.45,1873.59h0a12.46,12.46,0,0,0,12.46-12.46V1640.3H354v220.83A12.46,12.46,0,0,0,366.45,1873.59Z"/><path id="с-15" data-name="с" class="cls-8" d="M279,1873.59h0a12.46,12.46,0,0,0,12.47-12.46V1640.3H266.53v220.83A12.46,12.46,0,0,0,279,1873.59Z"/><path id="с-16" data-name="с" class="cls-7" d="M416.9,1312.58v262.78a5.42,5.42,0,0,0,5.41,5.42H585.24A29.76,29.76,0,0,1,615,1610.54h0a29.76,29.76,0,0,1-29.77,29.76H387.13a29.75,29.75,0,0,1-29.76-29.76v-298a29.76,29.76,0,0,1,29.76-29.77h0A29.77,29.77,0,0,1,416.9,1312.58Z"/><rect id="с-17" data-name="с" class="cls-7" x="258.31" y="1282.81" width="128.82" height="302.79" transform="translate(645.44 2868.42) rotate(180)"/><path id="с-18" data-name="с" class="cls-8" d="M288.08,1312.58v262.78a5.42,5.42,0,0,0,5.41,5.42H456.42a29.76,29.76,0,0,1,29.77,29.76h0a29.76,29.76,0,0,1-29.77,29.76H258.31a29.75,29.75,0,0,1-29.76-29.76v-298a29.76,29.76,0,0,1,29.76-29.77h0A29.77,29.77,0,0,1,288.08,1312.58Z"/></g><path class="cls-4" d="M1707.27,1212.15c-27.49-9.92-70-31.6-41.73-71.22s27.5-22.33,17.34-70.46,24.07-86,56.69-76.4,41,36,80.94,29.3,73.23,30.72,58.17,63.15-21.48,48-7.4,66,77.49,37.29,51,80.3-38.57,40.37-29.39,62.42-12,47.15-48.77,43.72-70.05-17.33-83.53-58.38S1707.27,1212.15,1707.27,1212.15Z"/><path class="cls-1" d="M1610,1837.31l-21.72,6.49-16.36-16.72c.78-1.16,0-12.37-2.5-24.3L1610,1796C1611.64,1808.41,1610,1824.82,1610,1837.31Z"/><path class="cls-5" d="M1588.46,1839.89c-5.17-13.56-16.21-15.07-16.21-15.07-21.45,28.63-74.15,11.06-72.41,49.78,80.14-.5,113.45,0,113.45,0-.11-8.89-1.69-30-3.54-38.26l-4.18.74Z"/><path class="cls-1" d="M1465.55,1841.35l-22.62,1.55-13-13.86c1-1,3.47-18.11,3.63-30.31l38.13,1.7A350.91,350.91,0,0,1,1465.55,1841.35Z"/><path class="cls-5" d="M1445.39,1839.89c-5.17-13.56-16.21-15.07-16.21-15.07-21.45,28.63-74.15,11.06-72.41,49.78,80.14-.5,113.45,0,113.45,0-.11-8.89-1.69-30-3.54-38.26l-4.18.74Z"/><path class="cls-12" d="M1694.28,1463.15c-61.75,8.31-235.68,72.77-245.37,84.43-20,24.09-9.47,155.15-19,263.3l50.55,3c24.22-88.08,22.29-126.09,33.24-227.11,0,0,198.71,14.89,270.52-33.58C1858.27,1503.21,1744.21,1451.31,1694.28,1463.15Z"/><path class="cls-2" d="M1613.81,1334.76c14.59,2.49,20.21,14.19,23.73,35.75-55.58,32.75-138.17,35.08-138.17,35.08l-26.32-13S1539.27,1368.72,1613.81,1334.76Z"/><path class="cls-2" d="M1765.82,1273.13c-24.33,35.35-117.53,111.37-133,113.77l-18.68-52.31s91-98.48,107.55-115.89C1750.35,1188.5,1805.64,1215.49,1765.82,1273.13Z"/><path class="cls-13" d="M1663.33,1267.47c19.51-21,44.91-68.46,78-65.09s35.45,38.46,25.48,57.35-44.38,65.45-44.38,65.45Z"/><path class="cls-1" d="M1669.32,1356.4c14,4.83,22,49,18.08,52.35-60.08,23.8-185.09-1.94-185.09-1.94l-6.63-22.64S1590.33,1378.38,1669.32,1356.4Z"/><path class="cls-5" d="M1867,1500.26c-13.74-70.88-19.66-96-25.36-129.36-14.11-82.44,27.36-140.39-43.73-179.9l-51.82,8.36c-41.9,44.08-67.7,84.09-69.91,111.73-3,35.65,32.34,55,32.34,55l-14.23,97.06s-3.35,7.93,55.08,19S1867,1500.26,1867,1500.26Z"/><path class="cls-1" d="M1824.4,1283.19c-24.33,35.76-128.28,126.64-143.9,127.44l-11.18-54.23s94.43-110.66,111-128.27C1808.93,1197.57,1864.23,1224.88,1824.4,1283.19Z"/><path class="cls-13" d="M1725,1283.44c18.15-26.42,54.77-75.15,87.83-71.77s35.45,38.45,25.49,57.35-44.38,65.44-44.38,65.44Z"/><path class="cls-1" d="M1495.68,1384.17c-19.12-4.69-60.67-18.66-77.4,25.11,4.2,8,19.58-11.8,26.19-13.64,10.49-2.91,19.49,2.6,27.43,10.19,11.38,10.88,30.41,1,30.41,1Z"/><path class="cls-13" d="M1480.81,1435H1301.27v-24.1h203.64A24.1,24.1,0,0,1,1480.81,1435Z"/><path class="cls-13" d="M1209,1283.58,1301.27,1435l21.34-11.22L1219.08,1251h0A24.09,24.09,0,0,0,1209,1283.58Z"/><path class="cls-1" d="M1821.61,1123.47c-8.73,36.46-39,60.46-67.66,53.6s-44.77-42-36-78.43,39-60.46,67.66-53.6S1830.34,1087,1821.61,1123.47Z"/><path class="cls-1" d="M1807.74,1142.67l-47.59,29.5s-4.22,21-6.33,27.86c-4.35,14.08,12.32,20.23,26.4,11.46S1797.9,1191,1797.9,1191Z"/><path class="cls-4" d="M1714.64,1084.71c13.52,1.17,42.82-1.18,53.5-13.85,7.62,25.73,40,50.21,66.78,61.69,1.07-26.39.88-74.94-46.43-95.12C1751.32,1021.59,1714.64,1084.71,1714.64,1084.71Z"/><path d="M1731.33,1108.22a5.12,5.12,0,1,1-2.3-6.87A5.12,5.12,0,0,1,1731.33,1108.22Z"/><path d="M1771.55,1118.14a5.54,5.54,0,1,1-2.49-7.43A5.54,5.54,0,0,1,1771.55,1118.14Z"/><path class="cls-4" d="M1777.68,1113.55a1.94,1.94,0,0,1-.89-.92c-2.78-6-10.28-7.16-10.36-7.17a1.93,1.93,0,0,1,.55-3.82c.39.06,9.64,1.45,13.31,9.37a1.93,1.93,0,0,1-2.61,2.54Z"/><path class="cls-4" d="M1720.16,1100.79a1.79,1.79,0,0,1-.51-.37,1.92,1.92,0,0,1,0-2.72,13.55,13.55,0,0,1,13.43-3.3,1.93,1.93,0,0,1-1.25,3.65,9.64,9.64,0,0,0-9.47,2.39A1.94,1.94,0,0,1,1720.16,1100.79Z"/><path class="cls-2" d="M1734.62,1119.35c-2.8,2.89-5.27,5.87-7.95,7.56a2,2,0,0,0-.67,2.71c2.17,3.84,8.49,7,12.37,8.65a.54.54,0,0,0,.57-.91c-3.92-3.43-5.6-6-6.3-7.35a2.42,2.42,0,0,1,0-2.19c.81-1.59,2.41-4.82,3.49-7.5A.92.92,0,0,0,1734.62,1119.35Z"/><path class="cls-1" d="M1807.83,1123.7c-7,5.41-9,14.42-4.58,20.11s13.67,5.93,20.62.51,9-14.42,4.58-20.11S1814.79,1118.29,1807.83,1123.7Z"/><path class="cls-2" d="M1811.79,1142.16a1.94,1.94,0,0,1-.68-.57c-2.67-3.55-2.92-7.55-.67-10.68a9.29,9.29,0,0,1,10.18-3.49,1.93,1.93,0,0,1-1.21,3.66,5.5,5.5,0,0,0-5.84,2.08c-1.25,1.74-1,3.92.62,6.12a1.92,1.92,0,0,1-2.4,2.88Z"/><path class="cls-14" d="M1763.36,1474.42c-61.74,8.31-235.94,64.77-245.63,76.43-20,24.09,24.55,127.24,38.81,260h59.6c-.62-94.62,6.94-181.66-22.18-212.51,0,0,167-11.14,250.2-11.14C1886.59,1587.23,1910.07,1443.85,1763.36,1474.42Z"/><path class="cls-10" d="M1732,1150a1.57,1.57,0,0,1,1.44-2.5,130.65,130.65,0,0,0,14.78,1,129.26,129.26,0,0,0,14.79-1,1.57,1.57,0,0,1,1.43,2.51c-2.53,3.41-7.78,8.59-16.23,8.59S1734.55,1153.45,1732,1150Z"/><path class="cls-1" d="M546.38,1372.46c-11.79,7.85-8.52,50.6-4.07,52.77,61.31,7.5,164.86-43.3,164.86-43.3l4.06-22.72S624.74,1373.7,546.38,1372.46Z"/><path class="cls-1" d="M411.67,1298.32c21.92,35,117.85,125.68,132.74,127L557.09,1374S471,1264.79,455.81,1247.36C429.6,1217.12,375.78,1241.17,411.67,1298.32Z"/><path class="cls-4" d="M464.1,1111c2.64-35.88-7.74-67.59-36.35-83.73-29-16.36-65.33-.32-65.33-.32h0s-30.75-10.94-58.62,19.76-6.79,57.72-18.19,80.11c-6.75,13.26-41.09,16-32.22,59.18,2.56,12.45,17.54,20.84,30.23,21.67,22.29,1.46,43.05-7.15,52.09,1.46,29.77,28.4,95.76,18.13,105-7.85,2.86-8,62.22,7.54,56.3-47.32C494,1126.2,461.75,1143.11,464.1,1111Z"/><polygon class="cls-1" points="409.71 1227.04 362.58 1218.34 344.91 1241.86 382.47 1318.86 437.71 1271.97 409.71 1227.04"/><path class="cls-14" d="M470.8,1412.71c-.81-14.65,22.87-74.82,10.41-105.11-9.08-24.36-24.24-65.25-42.82-72.08-8.76-3.22-17.76-5.46-28.68-8.48,0,0,6.16,30.7-6.67,31.73-24.71,2-40.46-40.43-40.46-40.43-13.32-1.27-74.42,18.81-74.39,23.82.15,39.3,32.07,96.63,42.51,139.12,4.11,45.89-11.9,100.8-12,106,0,0,98.29,27.63,156.56-4.45C476.51,1478.39,471.91,1432.94,470.8,1412.71Z"/><path class="cls-14" d="M333.53,1440.15s-21.7,54.75-27,89.21,24.57,56.57,24.57,56.57H579.45S606,1542.81,598.38,1513s-25.28-34.51-25.28-34.51Z"/><path class="cls-2" d="M582.77,1477c-31.7-4.47-123.72,31.27-163,108.92H529.58Z"/><path class="cls-2" d="M548,1505.59a88.39,88.39,0,0,0,11.1-15.78c9.25-16.31,31.55-19.06,44.15-5.18,45.77,50.46,143.34,165.5,165.09,179.81,6.14,4,42,24.7,76.09,20.61,0,0,16.83,6.41,5.62,19.77-5.77,6.88-92.4,14-92.4,14l-6.76-25.43c-50.43-37.33-113.21-34.64-166.44-102.88C555.14,1552.91,548,1505.59,548,1505.59Z"/><path class="cls-5" d="M775.19,1733.48l34.87,22.63,4.79-5.71L786.57,1724c16.06-12.68,53.27-2.1,53.27-2.1,12.18-7.87,35.94-33.4,38.39-47.08-7.81-9.73-33.79,10.28-33.79,10.28.95,4.33-7.26,19.33-13.79,21.9-28.38,6.12-56.67-1.94-79.76-13.66C750.89,1693.37,731.6,1722.6,775.19,1733.48Z"/><path class="cls-1" d="M547.5,1512.44a16.43,16.43,0,0,0-12,13.54c-2.48,17.61-15.3,53.28,2,90.63,42.59,91.69,67.74,152.11,72.21,175.78-11.13,20.83,33.23,77.74,33.89,81.47l31.93-10s-18.32-27.25-24.92-37.92c-15.7-25.41-18.27-56.59-20.83-80.77-10.9-103.18,7.84-168.33-66.82-228.86C558.58,1512.74,553,1511,547.5,1512.44Z"/><path class="cls-5" d="M593.83,1836l3.15,41.45,7.44.34,3.83-38.47c19.81,5.09,34,41.08,34,41.08,13.64,4.92,48.35,8.33,60.71,2,3-12.1-28.66-20.64-28.66-20.64-2.87,3.39-19.78,6-25.78,2.32-22.08-18.85-34.08-46.24-38.75-71.7C609.74,1792.39,576.05,1794.77,593.83,1836Z"/><path class="cls-1" d="M397.8,1188.55l-38.27-5.73,3.05,35.52s7.33,16.1,15.82,17.18l31.31-8.48Z"/><path class="cls-1" d="M324.13,1137.2c9.87,41.25,44.15,68.41,76.56,60.65s50.66-47.49,40.78-88.75-44.15-68.42-76.56-60.66S314.25,1095.94,324.13,1137.2Z"/><path d="M426.29,1119.94a5.79,5.79,0,1,0,2.6-7.77A5.8,5.8,0,0,0,426.29,1119.94Z"/><path d="M380.77,1131.16a6.27,6.27,0,1,0,2.82-8.41A6.27,6.27,0,0,0,380.77,1131.16Z"/><path class="cls-4" d="M373.84,1126a2.11,2.11,0,0,0,1-1c3.15-6.78,11.64-8.1,11.73-8.11a2.18,2.18,0,0,0-.62-4.32c-.44.06-10.91,1.64-15.07,10.6a2.18,2.18,0,0,0,3,2.87Z"/><path class="cls-4" d="M438.92,1111.54a2.39,2.39,0,0,0,.58-.42,2.19,2.19,0,0,0,0-3.09,15.34,15.34,0,0,0-15.21-3.73,2.18,2.18,0,0,0,1.42,4.13,10.93,10.93,0,0,1,10.72,2.7A2.17,2.17,0,0,0,438.92,1111.54Z"/><path class="cls-2" d="M422.56,1132.54c3.18,3.27,6,6.64,9,8.55a2.3,2.3,0,0,1,.76,3.06c-2.45,4.35-9.61,7.93-14,9.79a.61.61,0,0,1-.64-1c4.43-3.89,6.33-6.75,7.13-8.32a2.71,2.71,0,0,0,0-2.48c-.91-1.8-2.72-5.46-3.94-8.49A1,1,0,0,1,422.56,1132.54Z"/><path class="cls-1" d="M339.72,1137.46c7.87,6.12,10.19,16.31,5.18,22.76s-15.46,6.7-23.34.57-10.19-16.31-5.18-22.76S331.84,1131.33,339.72,1137.46Z"/><path class="cls-2" d="M335.24,1158.35a2.34,2.34,0,0,0,.77-.64c3-4,3.3-8.55.76-12.09a10.52,10.52,0,0,0-11.52-4,2.18,2.18,0,1,0,1.37,4.14,6.22,6.22,0,0,1,6.6,2.36c1.42,2,1.17,4.43-.7,6.92a2.18,2.18,0,0,0,.43,3.06A2.21,2.21,0,0,0,335.24,1158.35Z"/><path class="cls-10" d="M386.74,1165.43a1.74,1.74,0,0,1,1.59-2.77,122.51,122.51,0,0,0,32.76,0,1.74,1.74,0,0,1,1.59,2.77c-2.81,3.79-8.61,9.54-18,9.54S389.55,1169.22,386.74,1165.43Z"/><path class="cls-4" d="M323.33,1133.55c38.67-5.18,92.79-44.59,97.23-64.81-7.48-24.29-47.34-36.5-69.85-25.25S306.94,1103,323.33,1133.55Z"/><path class="cls-10" d="M685.16,1426h0a9.8,9.8,0,0,1-6.28-12.36l59.7-182.89A9.81,9.81,0,0,1,751,1224.5h0a9.8,9.8,0,0,1,6.27,12.36l-59.7,182.89A9.8,9.8,0,0,1,685.16,1426Z"/><path class="cls-1" d="M716.87,1360.49,729,1323.22s10.55,21.44,0,41.79-20.58,21.25-20.58,21.25Z"/><path class="cls-1" d="M699.49,1350.51c-3.07-7.23-10.31-25.33-3.07-25.25s8.42,8.88,8.42,8.88Z"/><path class="cls-1" d="M101.42,1241.61c16.42-16.57,5.65-33.55,5.65-33.55,9-1.94,56.54,70.07,77,115.82,35.75-36,98.74-84.69,115.78-87.52,0,0,23-6.18,31.23,21.6,7.37,24.8-21.37,42.37-21.37,42.37s-123,86.81-141.14,79.09C140.31,1367.42,114.7,1264.1,101.42,1241.61Z"/><path class="cls-1" d="M75.75,1239.56c10,.61,22.44-4.35,26.31,4.65l19.8-9.66,1.2-11.94c-17-27.27-58.49-35-62.6-35.36-10.67-.94-15.62-2-16.46-.61s-3.44,10.92,12,12.78c19.43,2.33,6.53,17.87-32.89,3.08-9.86-3.7-28.44,1.1-21.72,8.32C8.83,1218.76,30.1,1236.77,75.75,1239.56Z"/><path class="cls-14" d="M1148.54,684.37a78.68,78.68,0,0,1-4.46,26.1c-14.53,41.74-63.07,72.4-120.71,72.4s-106.18-30.66-120.71-72.4a78.67,78.67,0,0,1-4.45-26.1Z"/><path class="cls-12" d="M1148.54,684.37a78.68,78.68,0,0,1-4.46,26.1H902.66a78.67,78.67,0,0,1-4.45-26.1Z"/><path class="cls-15" d="M1285.49,262.12C1285.49,117.48,1168.33.2,1023.75,0,881.14-.2,763.85,114.72,761.3,257.31A261,261,0,0,0,816.2,422.7c44.73,57.61,69.55,128.17,69.55,201.11v1.29H1161v-1.29c0-73,25-143.61,69.73-201.35A260.92,260.92,0,0,0,1285.49,262.12Z"/><path class="cls-10" d="M1063,595.43a6.69,6.69,0,0,1-6.32-8.91c.31-.88,31.21-89.94,53.67-180.62C1150.18,245.17,1129.7,219,1119,215.27c-31.33-11.09-56.27,5.32-71.68,21a133.28,133.28,0,0,0-13,15.52,254,254,0,0,1,17.78,37.87c13.88,37.08,17.57,71.71,9.87,92.65-5.94,16.15-18.57,24.33-35.56,23.06-16-1.21-27.76-10.49-33.91-26.84-7.06-18.75-6.15-46.33,2.5-75.65a202,202,0,0,1,23.53-51.68c-9.24-14.63-19.94-27.21-31.56-35.68C969.8,203,953.6,202.43,938.9,213.93c-30.35,23.73-31.51,95.09-3.36,206.38,21.71,85.8,53.56,165.12,53.88,165.91a6.7,6.7,0,0,1-12.43,5c-.32-.8-32.47-80.86-54.41-167.52-30-118.57-27.3-192.71,8.07-220.35,19.43-15.19,42.26-14.71,64.3,1.36,11,8.05,22,20.11,31.85,34.87a141.54,141.54,0,0,1,11-12.68c25.64-26.15,56.08-34.78,85.72-24.28,18.46,6.53,26,31.37,23.15,75.93-2.13,32.86-10,76.81-23.3,130.63-22.61,91.27-53.7,180.84-54,181.73A6.69,6.69,0,0,1,1063,595.43Zm-36.78-331.07a190.1,190.1,0,0,0-18.31,42.34c-7.72,26.2-8.77,51.29-2.81,67.14,4.31,11.43,11.62,17.38,22.38,18.19,11.09.84,18.07-3.71,22-14.32C1058.35,353.57,1047.57,304.27,1026.24,264.36Z"/><rect class="cls-14" x="859.58" y="592.09" width="327.58" height="100.85" rx="49.39"/><path class="cls-15" d="M1468.66,272.89H1383a22.08,22.08,0,0,1-22.08-22.08h0A22.08,22.08,0,0,1,1383,228.72h85.7a22.09,22.09,0,0,1,22.09,22.09h0A22.09,22.09,0,0,1,1468.66,272.89Z"/><path class="cls-15" d="M663.77,272.89h-85.7A22.09,22.09,0,0,1,556,250.81h0a22.09,22.09,0,0,1,22.09-22.09h85.7a22.09,22.09,0,0,1,22.09,22.09h0A22.09,22.09,0,0,1,663.77,272.89Z"/><path class="cls-15" d="M718.24,91.56,650,39.67a22.09,22.09,0,0,1-4.2-31h0a22.09,22.09,0,0,1,30.95-4.2L745,56.41a22.08,22.08,0,0,1,4.2,31h0A22.08,22.08,0,0,1,718.24,91.56Z"/><path class="cls-15" d="M1324.13,91.56l68.2-51.89a22.09,22.09,0,0,0,4.2-31h0a22.09,22.09,0,0,0-31-4.2l-68.2,51.9a22.08,22.08,0,0,0-4.2,31h0A22.08,22.08,0,0,0,1324.13,91.56Z"/><path class="cls-15" d="M718.24,437.44,650,489.33a22.09,22.09,0,0,0-4.2,31h0a22.09,22.09,0,0,0,30.95,4.2l68.2-51.9a22.08,22.08,0,0,0,4.2-30.95h0A22.08,22.08,0,0,0,718.24,437.44Z"/><path class="cls-15" d="M1324.13,437.44l68.2,51.89a22.09,22.09,0,0,1,4.2,31h0a22.09,22.09,0,0,1-31,4.2l-68.2-51.9a22.08,22.08,0,0,1-4.2-30.95h0A22.08,22.08,0,0,1,1324.13,437.44Z"/><path id="Vector_25" data-name="Vector 25" class="cls-14" d="M1080.21,1342.61s-19.7-37.19-27.59-76.63c-6.85-33.7-6.53-74-5.69-95.45a5,5,0,0,1,9.17-2.39c12.4,20.29,34.83,61,39.87,97.86a762.4,762.4,0,0,1,7,76.63Z"/><path id="Vector_26" data-name="Vector 26" class="cls-14" d="M1100.83,1342.61s13.14-45.47,27.59-75.79c10.51-22,34.42-48.44,46.7-61.22a3.37,3.37,0,0,1,5.75,3c-3.15,16.81-10.44,50-22.35,72.58-16.55,31.46-44.13,61.47-44.13,61.47Z"/><path id="Vector_27" data-name="Vector 27" class="cls-12" d="M1033.25,1302.28a4.6,4.6,0,0,1,5.56-6.46,78.65,78.65,0,0,1,27,15.67c14.71,13.36,17.44,28.58,17.44,28.58l-5.06,1.71S1050.85,1336.79,1033.25,1302.28Z"/><path id="Vector_28" data-name="Vector 28" class="cls-12" d="M1136.11,1196a5,5,0,0,0-9.13-2.58c-10.26,14.27-27.48,42.41-33.11,76.9-7.06,43,1.15,72.33,1.15,72.33h5.81s21.39-40.53,29.73-68C1138.44,1248.72,1137.42,1214.3,1136.11,1196Z"/><path id="Vector_29" data-name="Vector 29" class="cls-12" d="M1114.39,1342.61s12.3-41,54.4-56.59a3,3,0,0,1,3.82,4c-5.55,13.55-21.37,45.89-48.08,52.6Z"/><path id="Vector_23" data-name="Vector 23" class="cls-8" d="M1151.65,1335.67h-97.44l12.51,99.83h72.43Z"/><path class="cls-5" d="M1046.88,1413.74v14.33h3.91a3.42,3.42,0,0,1,3.42,3.43v.57a3.42,3.42,0,0,1-3.42,3.43H884.52a4,4,0,0,1-4-4v-20.64a4,4,0,0,1,4-4h166.27a3.43,3.43,0,0,1,3.42,3.43h0a3.43,3.43,0,0,1-3.42,3.43Z"/><path class="cls-10" d="M902,1413.74h145.42a0,0,0,0,1,0,0v14.33a0,0,0,0,1,0,0H902a2.91,2.91,0,0,1-2.91-2.91v-8.5A2.91,2.91,0,0,1,902,1413.74Z"/><path class="cls-14" d="M865.83,1382.8v15.86h-3.9a3.62,3.62,0,0,0-3.43,3.79v.64a3.62,3.62,0,0,0,3.43,3.79h166.26a4.22,4.22,0,0,0,4-4.41v-22.84a4.21,4.21,0,0,0-4-4.41H861.93a3.62,3.62,0,0,0-3.43,3.79h0a3.62,3.62,0,0,0,3.43,3.79Z"/><path class="cls-10" d="M868.4,1382.8h145.27a0,0,0,0,1,0,0v15.85a0,0,0,0,1,0,0H868.4a3.06,3.06,0,0,1-3.06-3.06v-9.73A3.06,3.06,0,0,1,868.4,1382.8Z" transform="translate(1879 2781.46) rotate(180)"/><rect class="cls-5" x="872.05" y="1334.82" width="163.74" height="25.71" rx="6.06"/><path class="cls-8" d="M887.34,1360.53h154.57a4.58,4.58,0,0,1,4.58,4.58v5.52a4.58,4.58,0,0,1-4.58,4.58H887.34a4.59,4.59,0,0,1-4.59-4.59v-5.52A4.58,4.58,0,0,1,887.34,1360.53Z"/></g></g></svg>