<svg width="470" height="553" viewBox="0 0 470 553" fill="none" xmlns="http://www.w3.org/2000/svg">
<path d="M468.999 235.297L468.999 235.3C469.119 280.01 456.38 323.809 432.305 361.467C398.413 412.982 373.389 469.82 358.274 529.618L358.271 529.629L352.883 552H116.93L110.779 525.957L110.777 525.95L110.776 525.943C96.1273 467.776 71.7143 412.523 38.5784 362.541C18.7962 331.958 6.41398 297.177 2.41597 260.963C-1.58224 224.747 2.9149 188.097 15.5499 153.927C28.185 119.756 48.6095 89.0075 75.1994 64.1251C101.789 39.2427 133.812 20.9128 168.72 10.5925C203.629 0.272206 240.462 -1.75384 276.29 4.67541C312.118 11.1047 345.954 25.8119 375.107 47.628C404.261 69.4441 427.928 97.7674 444.228 130.346C460.527 162.925 469.009 198.861 468.999 235.297ZM37.7418 363.089C70.8167 412.977 95.1847 468.128 109.806 526.187L37.7418 363.089Z" stroke="black" stroke-opacity="0.4" stroke-width="2"/>
</svg>
